<?xml version="1.0" standalone="no"?>
<!DOCTYPE svg PUBLIC "-//W3C//DTD SVG 1.1//EN" "http://www.w3.org/Graphics/SVG/1.1/DTD/svg11.dtd" >
<svg xmlns="http://www.w3.org/2000/svg">
<metadata>Generated by IcoMoon</metadata>
<defs>
<font id="icomoon" horiz-adv-x="1024">
<font-face units-per-em="1024" ascent="960" descent="-64" />
<missing-glyph horiz-adv-x="1024" />
<glyph unicode="&#x20;" horiz-adv-x="512" d="" />
<glyph unicode="&#xe600;" glyph-name="arrow" d="M341.264 699.6l251.488-251.488-254.768-254.8c-8.336-8.624-13.456-20.368-13.456-33.312 0-26.512 21.488-48 48-48 12.944 0 24.688 5.12 33.312 13.456l0.016-0.016 287.984 288.016c9.040 8.736 14.688 20.976 14.688 34.544 0 0.032 0 0.080 0 0.112s0 0.064 0 0.096c0 13.584-5.648 25.824-14.688 34.544l0.016 0.016-288.128 287.856c-8.608 8.288-20.304 13.376-33.2 13.376-26.512 0-48-21.504-48-48 0-14.56 6.496-27.616 16.736-36.4z" />
<glyph unicode="&#xe601;" glyph-name="arrow-light" d="M267.6-64c-2.096 0-4.208 0.816-5.808 2.4-3.216 3.216-3.216 8.416 0 11.632l502.944 502.928-493.024 493.024c-3.216 3.216-3.216 8.4 0 11.616 3.2 3.216 8.4 3.216 11.616 0l498.832-498.816c1.552-1.552 2.416-3.632 2.416-5.808 0-2.192-0.88-4.272-2.416-5.808l-508.768-508.768c-1.6-1.584-3.696-2.4-5.792-2.4z" />
<glyph unicode="&#xe602;" glyph-name="email" d="M1.92 821.376l450.816-329.472c15.104-11.008 34.688-16.384 54.4-16.384 19.824 0 39.424 5.376 54.512 16.384l450.816 329.472c3.984 2.944 7.824 6.656 11.536 10.88v76.544h-1024v-85.888l1.92-1.536zM1024-12.8v670.080l-462.336-328.832c-20.464-14.608-34.688-16.384-54.512-16.384-19.712 0-34.048 1.776-54.4 16.384l-452.752 321.92v-663.168h1024z" />
<glyph unicode="&#xe603;" glyph-name="facebook" d="M700.16 595.36h-128.112v86.736c0 32.592 20.816 40.224 35.552 40.224h90.48v143.216l-124.48 0.528c-138.32 0-169.728-106.912-169.728-175.296v-95.408h-80.032v-147.632h80.016v-417.792h168.192v417.792h113.36l14.752 147.632z" />
<glyph unicode="&#xe604;" glyph-name="geo" d="M512 831.952c153.136 0 277.296-120.304 277.296-268.752 0-148.416-124.16-268.72-277.296-268.72-153.12 0-277.312 120.32-277.312 268.72-0.016 148.448 124.176 268.752 277.312 268.752zM102.752 570.304c0-260.96 334.528-399.68 343.264-557.488v-12.784c0-35.216 29.6-64.032 65.984-64.032s65.952 28.816 65.952 64.032v12.784c12.32 163.12 343.312 296.528 343.312 557.488-0.016 215.392-183.232 389.696-409.264 389.696-226.048 0-409.248-174.304-409.248-389.696zM512 729.584c-94.752 0-171.712-74.528-171.712-166.384 0-91.824 76.976-166.352 171.712-166.352 94.752 0 171.536 74.528 171.536 166.352 0 91.856-76.784 166.384-171.536 166.384zM446.016 563.2c0 35.408 29.6 64.048 65.968 64.048 36.384 0 65.952-28.64 65.952-64.048 0-35.232-29.568-64.032-65.952-64.032-36.368 0-65.968 28.8-65.968 64.032z" />
<glyph unicode="&#xe605;" glyph-name="google" d="M414.56 433.664c-21.584 19.616-22.976 47.888-4.032 70.432 9.744 11.824 20.88 22.688 32.576 32.576 31.728 26.592 62.368 54.304 76.16 95.232 23.808 70.72 11.136 135.728-33.552 194.496-9.616 12.672-20.752 24.224-30.352 35.488-0.832-0.128 0.976 0.56 2.64 0.288 45.104-6.816 84.512 7.376 120.704 33.68 2.656 1.824 5.856 2.928 8.496 4.736 2.368 1.664 4.464 3.888 9.472 8.064-7.936 1.264-12.544 2.784-17.264 2.784-74.48 0-149.104 0.56-223.584-0.272-25.904-0.288-51.792-2.656-77.552-5.84-69.488-8.352-129.488-36.752-173.056-93.84-47.2-61.808-61.808-130.864-30.496-204.64 31.184-73.36 88.272-111.792 166.096-117.92 17.536-1.248 35.216-0.144 52.48-0.144-23.376-46.912-5.84-84.784 22.56-121.376-33.008-4.064-63.344-6.56-93.408-11.84-62.368-10.736-121.392-29.92-169.984-74.336-52.368-47.776-67.824-127.12-35.936-186.992 23.248-43.28 60.704-69.168 104.56-86.304 63.904-24.64 130.176-27.712 196.992-19.504 75.888 9.328 144.368 35.648 199.232 92.72 74.88 77.952 71.984 197.136-7.808 269.952-31.056 28.256-63.776 54.448-94.944 82.56zM225.776 571.904c-50.672 61.68-68.64 134.624-51.232 213.296 16.704 76.016 109.152 105.808 168.032 56.24 44.56-37.312 64.464-88.544 75.184-144.24 2.928-15.312 3.616-30.896 4.72-39.952-1.392-37.872-3.472-68.912-26.32-93.568-47.744-51.776-122.64-49.824-170.384 8.224zM416.080 60.992c-32.864-15.024-67.664-18.512-103.024-18.96-55.968 1.264-109.84 10.176-155.776 46.352-71.424 55.968-62.24 159.824 17.536 202.992 44 23.808 91.744 30.080 140.336 35.52 30.912 3.344 55.968-4.048 78.656-24.8 18.24-16.704 38.432-31.168 56.528-47.888 62.64-57.488 42.448-158.144-34.256-193.216zM1023.36 683.696c-0.144 3.344-6.96 8.768-10.704 8.768-61.968 0.56-124.048 0.416-187.952 0.416v14.896c0 57.088-0.288 114.16 0.272 171.232 0.144 11.424-3.744 15.040-14.336 14.624-12.528-0.704-25.056-0.832-37.472-0.144-12.24 0.688-16.144-4.176-16-16.432 0.704-54.704 0.416-109.568 0.56-164.288 0-20.608 0-20.608-20.608-20.736-54.72 0-109.28-0.288-163.856 0.272-13.36 0.144-18.368-4.32-17.12-18.096 1.104-12.672 0.704-25.472 0.128-38.144-0.528-11.696 3.92-15.312 15.472-15.312 56.96 0.56 113.888 0.272 170.832 0.272h15.168v-53.872c0-44.832-0.272-89.664 0.4-134.48 0-5.136 4.752-14.608 7.664-14.768 19.2-1.392 38.416-0.672 59.024-0.672v204.096h199.072c0.016 22 0.432 42.32-0.544 62.368z" />
<glyph unicode="&#xe606;" glyph-name="instagram" d="M858.688 175.184c0-46.88-37.008-85.184-82.432-85.184h-528.512c-45.568 0-82.576 38.32-82.576 85.184v364.096h128.576c-11.024-28.16-17.28-58.928-17.28-91.28 0-134.096 105.648-243.072 235.536-243.072 129.872 0 235.536 108.992 235.536 243.072 0 32.352-6.256 63.12-17.44 91.28h128.592v-364.096zM389.088 539.28c27.568 39.472 72.256 65.296 122.912 65.296 50.496 0 95.344-25.824 122.912-65.296 18-25.68 28.736-57.184 28.736-91.28 0-86.192-68.064-156.416-151.648-156.416s-151.648 70.24-151.648 156.416c0 34.096 10.736 65.6 28.736 91.28zM824 790.192h19.008v-150.64l-145.552-0.576-0.416 150.768 126.96 0.448zM776.256 892.64h-528.512c-91.856 0-166.448-77.056-166.448-171.824v-545.632c0-94.768 74.592-171.84 166.448-171.84h528.512c91.712 0 166.448 77.072 166.448 171.84v545.632c0 94.768-74.736 171.824-166.448 171.824z" />
<glyph unicode="&#xe607;" glyph-name="linkedin" d="M540.576 486.128v1.2l-0.736-1.2zM775.856 185.744h-114.64v187.92c0 47.264-16.592 79.52-58.096 79.52-31.648 0-50.4-21.792-58.72-42.72-3.104-7.584-3.824-18.032-3.824-28.496v-196.208h-114.528c0 0 1.424 318.304 0 351.264h114.528v-49.68c15.264 23.952 42.448 58 103.312 58 75.44 0 131.968-50.16 131.968-158.176v-201.424zM305.264 585.008h-0.704c-38.496 0-63.28 26.944-63.28 60.736 0 34.4 25.632 60.624 64.72 60.624 39.216 0 63.392-26.224 64.112-60.624-0.016-33.792-24.896-60.736-64.848-60.736zM362.528 185.744h-114.528v351.264h114.512v-351.264zM835.28 837.040h-646.592c-31.024 0-56.048-24.912-56.048-55.696v-666.672c0-30.688 25.024-55.68 56.048-55.68h646.592c30.944 0 56.064 25.008 56.064 55.68v666.656c0 30.8-25.12 55.712-56.064 55.712z" />
<glyph unicode="&#xe608;" glyph-name="pinterest" d="M535.248 960c-270.688 0-407.168-200.416-407.168-367.472 0-101.136 37.040-191.152 116.56-224.672 13.12-5.552 24.88-0.144 28.576 14.688 2.624 10.336 8.96 36.432 11.728 47.248 3.696 14.672 2.32 19.92-8.336 32.736-22.848 27.952-37.52 64.064-37.52 115.488 0 148.528 107.76 281.632 280.544 281.632 153.008 0 237.008-96.512 237.008-225.44 0-169.536-72.736-312.672-180.672-312.672-59.584 0-104.208 50.816-89.84 113.168 17.136 74.592 50.336 155.024 50.336 208.768 0 48.176-25.168 88.336-76.896 88.336-60.992 0-109.936-65.168-109.936-152.24 0-55.6 18.224-93.104 18.224-93.104l-73.344-320.544c-21.76-95.12-3.232-211.68-1.68-223.424 0.928-6.976 9.568-8.656 13.584-3.408 5.568 7.568 78.128 100.064 102.848 192.544 6.96 26.096 40.144 161.664 40.144 161.664 19.76-39.056 77.664-73.344 139.104-73.344 183.12 0 307.424 172.32 307.424 403.152-0.016 174.304-143.136 336.896-360.688 336.896z" />
<glyph unicode="&#xe609;" glyph-name="playcircle" d="M512 961.024c-282.784 0-512-229.632-512-513.024 0-283.28 229.216-513.024 512-513.024s512 229.744 512 513.024c0 283.392-229.216 513.024-512 513.024zM510.064-18.288c-259.216 0-469.264 210.032-469.264 469.248s210.032 469.264 469.264 469.264 469.248-210.032 469.248-469.264c0-259.216-210.032-469.248-469.248-469.248zM691.648 464.224l-253.808 166.992c-18.464 12.96-33.664 3.456-33.664-21.008v-324.304c0-24.48 15.2-33.968 33.664-21.12l253.808 167.088c0 0 8.992 6.752 8.992 16.128-0.016 9.488-8.992 16.224-8.992 16.224z" />
<glyph unicode="&#xe60a;" glyph-name="quote" d="M970.048 862.336c-32.064-19.984-70.992-44.72-117.056-74.704-46.96-30.864-90.944-68.736-131.936-112.56-40.128-42.8-75.008-91.552-103.024-146.416-28.032-54.72-42.048-115.536-42.048-181.296 0-93.648 19.072-169.216 59.024-227.072 39.952-57.68 106.016-86.624 199.040-86.624 58 0 104.992 18.944 138.976 58.752s50.976 82.72 50.976 128.512c0 63.664-21.024 111.536-63.056 145.36-41.904 32.976-99.888 49.808-171.904 49.808h-85.008c5.968 49.792 17.008 90.656 32.96 122.56 15.056 31.904 38.032 62.768 70.080 93.632 31.904 30.864 62.928 55.76 93.936 74.688 31.008 18.944 72.016 41.904 123.008 67.696l-53.968 87.664zM394.064 862.336c-32.048-19.984-71.12-44.72-117.040-74.704-46.976-30.864-91.104-68.736-131.952-112.56-40.096-42.8-75.136-91.552-103.024-146.416-28.032-54.72-42.048-115.536-42.048-181.296 0-93.648 18.944-169.216 59.040-227.072 39.952-57.68 106.016-86.624 198.896-86.624 58 0 105.12 18.944 139.104 58.752 34 39.808 50.992 82.736 50.992 128.512 0 63.664-21.024 111.536-63.056 145.36-42.048 32.976-100.048 49.808-171.92 49.808h-85.12c6.112 49.792 18.032 91.68 34.144 123.6 15.952 31.76 38.912 62.624 68.88 92.592 32.048 30.864 63.056 55.76 94.080 74.688s72.016 41.904 123.008 67.696l-53.984 87.664z" />
<glyph unicode="&#xe60b;" glyph-name="search" d="M408.224 233.024c-176.688 0-331.664 155.088-331.664 331.904 0 175.84 142.96 318.912 318.672 318.912 176.704 0 331.776-155.088 331.776-331.904 0-175.84-142.96-318.912-318.784-318.912zM1007.808 56.096l-244.528 244.624-50.24 2.096 22.208 25.968 10.944 17.936c37.488 61.664 57.28 132.656 57.28 205.216 0 217.472-190.768 408.352-408.24 408.352-217.952 0-395.232-177.424-395.232-395.36 0-217.584 190.752-408.464 408.224-408.464 69.888 0 138.704 18.688 199.008 53.872l15.168 8.848 27.552 21.712v-45.248l248.64-248.784c7.296-7.152 16.88-11.152 27.056-11.152 10.208 0 19.792 4 27.056 11.152l64.208 64.32c11.904 11.904 8.752 26.944-9.104 44.912z" />
<glyph unicode="&#xe60c;" glyph-name="twitter" d="M972.624 729.264c-33.936-14.8-70.368-24.8-108.608-29.36 38.992 23.024 68.992 59.488 83.152 102.912-36.576-21.264-76.976-36.848-120.128-45.072-34.416 36.080-83.536 58.736-137.824 58.736-104.432 0-188.992-83.28-188.992-186.064 0-14.56 1.648-28.72 4.8-42.4-157.072 7.712-296.32 81.76-389.488 194.432-16.32-27.488-25.68-59.504-25.68-93.552 0-64.56 33.408-121.504 84.176-154.8-31.024 0.88-60.128 9.232-85.712 23.28v-2.416c0-90.112 65.2-165.312 151.664-182.4-15.824-4.288-32.528-6.576-49.76-6.576-12.272 0-24.048 1.28-35.552 3.424 24.048-73.92 93.776-127.712 176.432-129.216-64.672-49.872-146.064-79.632-234.672-79.632-15.184 0-30.256 0.896-45.072 2.64 83.664-52.784 183.040-83.664 289.744-83.664 347.568 0 537.712 283.536 537.712 529.344 0 7.968-0.144 16.080-0.512 24.048 36.848 26.208 68.992 58.992 94.32 96.336z" />
<glyph unicode="&#xe60d;" glyph-name="youtube" d="M804.88 222.416h-83.008v-40.736c0-11.376 1.44-19.248 4.288-23.648 2.816-4.528 7.744-6.608 14.72-6.608 7.248 0 12.16 1.808 15.008 5.568s4.4 11.904 4.4 24.688v9.84h44.592v-11.12c0-22.096-5.44-38.784-16.432-50.16-10.72-11.12-27.008-16.688-48.592-16.688-19.408 0-34.784 5.968-45.904 17.84-11.088 11.76-16.784 28.192-16.784 49.008v97.216c0 18.736 6.192 34.128 18.464 45.872 12.288 11.776 28.064 17.712 47.44 17.712 19.904 0 35.184-5.44 45.776-16.416 10.72-10.992 16.032-26.624 16.032-47.168v-55.2zM654.528 164.128c0-15.264-3.504-27.024-10.224-35.168-6.72-8.272-16.688-12.288-29.472-12.288-8.528 0-16.16 1.552-22.752 4.8-6.592 3.088-12.816 7.872-18.496 14.592v-16.528h-43.808v293.168h43.808v-94.352c5.808 6.448 12.032 11.504 18.624 14.992s13.184 5.168 20.032 5.168c13.712 0 24.192-4.656 31.408-13.824 7.248-9.168 10.88-22.752 10.88-40.464v-120.096zM497.216 119.536h-43.44v23.648c-8.032-8.8-16.304-15.392-24.96-19.904-8.672-4.784-17.072-6.992-25.2-6.992-10.096 0-17.6 3.248-22.752 9.696-4.928 6.448-7.504 16.016-7.504 28.96v180.832h43.296v-165.968c0-5.040 0.912-8.8 2.72-11.008 1.792-2.448 4.784-3.488 8.928-3.488 3.088 0 7.088 1.552 12.016 4.512 4.928 3.104 9.44 6.992 13.456 11.648v164.304h43.44v-216.24zM354.224 370.048h-50.544v-250.512h-48.864v250.512h-50.544v42.656h149.952v-42.656zM783.936 467.776h-543.968c-86.496 0-156.56-69.936-156.56-156.16v-125.536c0-86.224 70.064-156.16 156.56-156.16h543.984c86.464 0 156.656 69.936 156.656 156.16v125.536c-0.016 86.224-70.208 156.16-156.672 156.16zM741.28 303.344c-7.008 0-11.904-1.936-14.88-5.952-3.088-3.872-4.528-10.336-4.528-19.392v-21.84h38.4v21.84c0 9.056-1.568 15.52-4.656 19.392-2.832 4.016-7.776 5.952-14.336 5.952zM591.68 304.128c-3.088 0-6.192-0.656-9.152-2.080s-5.968-3.744-8.944-6.72v-134.704c3.504-3.504 7.008-6.208 10.224-7.744 3.376-1.44 6.848-2.336 10.464-2.336 5.44 0 9.312 1.552 11.776 4.64 2.432 3.12 3.744 8.032 3.744 14.88v111.808c0 7.376-1.568 12.816-4.528 16.56-3.232 3.76-7.728 5.696-13.584 5.696zM311.184 542.992h54.928v133.952l64 189.12h-55.84l-34-129.152h-3.504l-35.68 129.152h-55.312l65.408-195.072zM484.4 728.64c0 5.168 1.808 9.296 5.44 12.672 3.872 3.088 8.656 4.656 14.592 4.656 6.464 0 11.664-1.568 15.664-4.656 4-3.376 5.936-7.504 5.936-12.672v-129.92c0-6.336-1.936-11.376-5.808-15.008-3.872-3.744-9.184-5.424-15.776-5.424-6.448 0-11.504 1.664-14.864 5.296-3.488 3.632-5.168 8.656-5.168 15.12v129.936zM504.576 536.944c22.24 0 39.552 5.808 52.368 17.44 12.528 11.648 18.88 27.536 18.88 47.968v123.056c0 18.224-6.464 33.088-19.28 44.592-12.912 11.52-29.472 17.328-49.76 17.328-22.112 0-39.808-5.424-53.008-16.416-13.056-10.992-19.664-25.6-19.664-44.080v-123.584c0-20.304 6.464-36.336 19.12-48.336 12.944-11.92 30.016-17.968 51.344-17.968zM649.472 539.52c9.184 0 18.624 2.576 28.32 7.632 9.84 5.040 19.152 12.544 28.064 22.24v-26.368h48.88v238.224h-48.88v-180.848c-4.528-5.168-9.568-9.44-15.008-12.8-5.568-3.36-10.064-5.040-13.568-5.040-4.656 0-8.032 1.296-9.968 3.744-2.064 2.592-3.216 6.592-3.216 12.288v182.656h-48.752v-199.2c0-14.224 3.008-24.832 8.528-31.792 5.84-7.136 14.256-10.736 25.6-10.736z" />
<glyph unicode="&#xe60e;" glyph-name="ame-adultplus" d="M328.896 913.472c-32.48 0-58.848-26.432-58.848-58.848 0-32.48 26.352-58.928 58.848-58.928 32.4 0 58.752 26.432 58.752 58.928 0 32.4-26.352 58.848-58.752 58.848zM328.896 749.168c-58.048 0-105.28 47.312-105.28 105.456 0 58.16 47.232 105.376 105.28 105.376 57.968 0 105.2-47.216 105.2-105.376 0-58.144-47.232-105.456-105.2-105.456zM295.968 11.472h67.584l2.272-20.8c0.512-4.656 0.864-8.144 12.128-8.144 11.44 0 11.872 3.488 12.32 8.144l29.888 414.144 46.432-1.664c0.176-1.904 3.648-6.656 7.552-6.656 3.808 0 8.24 5.184 9.088 8.576l-0.864 258.48c0 1.376 0.96 31.456-17.6 50.768-11.36 11.792-28.592 17.776-51.216 17.776h-167.584c-59.968 0-69.136-42.816-69.328-68.304v-258.736c0.864-3.392 5.376-8.496 9.28-8.496 3.888 0 7.696 5.376 8.144 8.768l46.272-0.896 29.12-414.56c0.336-3.968 0.688-7.36 12.128-7.36 11.36 0 11.696 3.392 12.224 8.064l2.16 20.896zM377.936-64c-21.136 0-38.048 7.984-48.176 21.936-10.064-13.952-26.944-21.936-48.176-21.936-32.848 0-55.28 19.072-58.48 49.824l-25.664 365.536c-3.648-0.88-7.456-1.312-11.52-1.312-30 0-52.96 26.256-55.648 50.768l-0.080 2.528v260.304c0.256 53.296 30.832 115.008 115.76 115.008h167.584c35.968 0 64.64-10.928 85.104-32.496 32.24-33.968 30.24-81.632 30.16-83.712l0.864-260.304-0.064-1.328c-2.704-24.592-25.584-50.848-55.472-50.848-3.808 0-7.632 0.416-11.264 1.2l-26.336-364.64c-3.296-31.456-25.744-50.528-58.592-50.528zM562.176 803.504h331.632v-46.528h-331.632v46.528zM704.72 946.32h46.448v-332.16h-46.448v332.16z" />
<glyph unicode="&#xe60f;" glyph-name="ame-adults" d="M721.408 912.336c-32.4 0-58.752-26.352-58.752-58.768s26.336-58.848 58.752-58.848c32.32 0 58.56 26.432 58.56 58.848s-26.256 58.768-58.56 58.768zM721.408 748.304c-58 0-105.12 47.232-105.12 105.28 0 58.064 47.12 105.28 105.12 105.28 57.872 0 104.912-47.216 104.912-105.28 0-58.048-47.040-105.28-104.912-105.28zM688.464 11.392h67.504l2.256-20.8c0.432-4.688 0.88-8.16 12.16-8.16 11.44 0 11.776 3.472 12.288 8.16l29.808 413.664 46.288-1.712c0.16-1.824 3.664-6.576 7.536-6.576 3.808 0 8.16 5.104 9.12 8.576l-0.912 258.224c0 1.376 0.976 31.376-17.568 50.704-11.376 11.776-28.528 17.744-51.12 17.744h-167.168c-59.776 0-69.008-42.8-69.152-68.288v-258.384c0.88-3.392 5.376-8.496 9.28-8.496 3.872 0 7.68 5.36 8.032 8.656l46.224-0.864 29.008-414.032c0.432-3.984 0.784-7.376 12.16-7.376 11.344 0 11.664 3.392 12.128 8.064l2.128 20.896zM770.368-64c-21.152 0-37.968 7.968-48.096 21.824-10.048-13.856-26.864-21.824-48.080-21.824-32.784 0-55.152 19.040-58.336 49.728l-25.632 365.072c-3.664-0.864-7.472-1.296-11.44-1.296-29.904 0-52.88 26.256-55.472 50.784l-0.192 2.512v259.968c0.288 53.296 30.752 114.912 115.536 114.912h167.152c35.936 0 64.528-10.944 84.912-32.4 32.256-33.984 30.256-81.648 30.16-83.648l0.88-260.048-0.192-1.28c-2.592-24.624-25.472-50.88-55.28-50.88-3.808 0-7.536 0.448-11.184 1.312l-26.256-364.224c-3.376-31.472-25.76-50.512-58.48-50.512zM322.784 913.456c-31.36 0-56.864-26.256-56.864-58.48 0-32.336 25.504-58.496 56.864-58.496 31.376 0 56.944 26.176 56.944 58.496 0 32.224-25.568 58.48-56.944 58.48zM322.784 749.936c-56.944 0-103.2 47.152-103.2 105.024s46.272 105.040 103.2 105.040 103.296-47.152 103.296-105.024-46.352-105.040-103.296-105.040zM290.032 15.2h53.2l1.984-21.056c0.512-4.768 0.784-7.376 11.36-7.376 9.872 0 10.928 2.608 11.36 6.784l0.336 295.024 106.496-0.16-66.448 218.016 17.152 8.848c35.008 18.208 49.472 33.696 51.040 38.384 3.104 14.816-14.912 85.952-33.712 142.976-0.080 0.176-13.184 32.16-66.368 32.416l-120.448-0.336c-3.648 0.16-5.904 0.256-8.064 0.256-45.040 0-55.536-27.392-57.264-32.944-18.112-57.264-35.696-128.080-33.024-142.72 1.664-4.944 19.136-22.96 60.144-42.528l18.368-8.768-69.84-213.68 98.704 0.256 0.336-294.784c0.432-4.256 1.472-6.672 11.36-6.672 10.656 0 10.912 2.336 11.344 7.008l1.984 21.056zM356.592-59.744c-16.352 0-30.080 4.864-40.016 13.52-9.984-8.496-23.584-13.168-39.872-13.168-32.496 0-54.576 19.056-57.648 49.664l-0.080 2.24-0.352 249.504-116.352-0.352 77.28 236.48c-30.24 16.464-60.992 38.992-67.056 64.736-7.264 31.264 21.328 127.2 33.968 166.976 9.52 31.632 43.664 69.248 110.832 65.344l119.248 0.432c83.008-0.512 107.36-56.768 109.856-63.168 10.672-32.064 43.28-135.456 35.184-169.584-5.52-23.232-31.792-44.016-57.792-59.36l73.728-241.6-122.944 0.176-0.336-252.080c-3.056-30.704-25.152-49.76-57.648-49.76z" />
<glyph unicode="&#xe610;" glyph-name="ame-area" d="M47.296 430.368h583.072v454h-583.072v-454zM677.664 382.72h-677.664v549.216h677.664v-549.216zM47.296 11.712h929.152v371.008h-929.152v-371.008zM1023.824-35.936h-1023.824v466.304h1023.824v-466.304zM677.664 430.528h299.040v296.448h-299.040v-296.448zM1024 382.912h-393.648v391.616h393.648v-391.616z" />
<glyph unicode="&#xe611;" glyph-name="ame-bed" d="M512 810.672c271.328 0 426.080-78.288 465.392-101.072v-226.064h-82.096v145.312l-19.68 3.088c-4.784 0.72-117.632 18.352-186.944 18.352-64.4 0-162.064-15.024-180.24-17.872-18.656 2.848-120 17.872-184.064 17.872-69.808 0-178.592-17.648-183.104-18.352l-19.616-3.152v-145.248h-75.040v226.064c39.392 22.784 194.144 101.072 465.392 101.072zM46.624 325.76h930.784v-192.56h-930.784v192.56zM977.504 436.752l-0.096-64.224h-930.784v64.224h930.88zM484.368 483.536h-316.112v105.216c34.464 5.072 107.040 14.768 156.128 14.768 49.056 0 124.576-9.824 159.984-14.864v-105.12zM848.688 483.536h-316.128v105.216c34.464 5.072 107.024 14.768 156.128 14.768 49.056 0 124.56-9.824 160-14.864v-105.12zM1024 483.536h-0.064v251.392l-10.032 7.008c-6.752 4.672-169.968 115.52-501.904 115.52-331.904 0-495.168-110.848-501.92-115.536l-9.984-7.008v-274.736l-0.096-373.84h2.528v-24.368c0-12.928 10.4-23.424 23.264-23.424 12.88 0 23.28 10.496 23.28 23.424v24.368h925.856v-24.368c0-12.928 10.4-23.424 23.248-23.424 12.912 0 23.28 10.496 23.28 23.424v24.368h2.464l0.080 397.2z" />
<glyph unicode="&#xe612;" glyph-name="ame-children" d="M306.192 697.568c-24 0-43.552-19.536-43.552-43.536 0-23.936 19.568-43.456 43.552-43.456 24.016 0 43.568 19.52 43.568 43.456 0 24-19.536 43.536-43.568 43.536zM306.192 567.296c-47.824 0-86.832 38.88-86.832 86.736 0 47.84 39.008 86.816 86.832 86.816 47.936 0 86.848-38.976 86.848-86.816 0-47.856-38.912-86.736-86.848-86.736zM277.2 2.224h59.488l2.096-19.36c0.176-2 0.624-2.72 0.624-2.72 0.288-0.080 2.112-0.88 5.792-0.88 3.84 0 5.68 0.8 6.128 1.040 0 0 0.352 0.8 0.528 2.544l23.824 260.48 43.2-2.016c0.16-0.432 1.936-2.096 2.8-2.096 0.976 0 3.328 2.352 4.016 4.208l-0.688 204.416c0 1.232 0.624 23.824-13.136 38.096-8.416 8.688-21.28 13.152-38.368 13.152h-133.104c-42.672 0-51.776-27.744-51.952-50.976l0.080-204.688c0.64-1.664 2.992-4.112 4.112-4.112 1.072 0 3.088 2.544 3.248 4.112l43.12-0.416 23.12-260.496c0.176-1.312 0.512-2.208 0.624-2.368 0.256-0.080 2.096-0.88 5.968-0.88 3.76 0 5.616 0.8 5.968 1.040 0 0 0.352 0.896 0.528 2.544l1.984 19.376zM345.2-64c-16.208 0-29.456 5.504-38.208 15.408-8.752-9.904-22-15.408-38.288-15.408-27.968 0-46.96 16.192-49.68 42.4l-19.36 218.16c-2.288-0.336-4.576-0.528-7.024-0.528-26.368 0-45.104 22.448-47.296 43.2l-0.176 2.304v206.416c0.256 43.824 25.328 94.464 95.232 94.464h133.104c29.52 0 53.008-9.024 69.92-26.72 26.208-27.52 25.072-64.672 24.896-68.784l0.704-206.528-0.096-1.232c-2.272-20.752-21.024-43.184-47.216-43.184-2.352 0-4.56 0.192-6.832 0.528l-19.904-217.824c-2.816-26.48-21.84-42.672-49.776-42.672zM666.72 2.224h48.656l1.904-19.568c0.272-2.352 0.8-3.232 0.8-3.232 0.272-0.192 2.352-1.040 6.656-1.040 6.384 0 7.184 0.96 7.44 3.744l0.288 181.712 89.088-0.16-55.712 182.24 16.032 8.336c28.32 14.512 40.48 27.136 41.968 31.008 2.32 12.416-12.8 71.664-28.368 118.8-0.096 0-10.528 25.584-53.984 25.84l-101.552-0.256c-3.136 0.096-4.992 0.176-6.832 0.176-36.448 0-44.944-21.808-46.288-26.192-15.056-47.488-29.776-106.464-27.76-118.992 1.584-3.936 15.952-18.24 49.52-34.272l17.152-8.144-58.528-178.608 82.352 0.24 0.256-181.424c0.352-1.952 0.8-2.56 0.8-2.56 0.256-0.272 2.208-1.232 6.752-1.232 4.928 0 6.656 1.056 6.912 1.136-0.080 0.096 0.352 0.88 0.544 2.896l1.904 19.552zM724.736-64.912c-13.584 0-25.152 3.744-33.824 10.576-8.576-6.64-20.064-10.336-33.552-10.336-28.56 0-48.016 16.752-50.752 43.648l-0.064 2.096-0.192 139.328-99.008-0.272 65.536 199.952c-25.408 13.92-50.912 33.024-56.064 54.848-6.208 26.896 17.952 107.936 28.64 141.6 8.24 27.248 37.52 59.392 95.616 56.32l100.4 0.368c71.6-0.464 92.544-48.896 94.704-54.432 11.504-34.512 36.464-115.376 29.712-143.856-4.032-16.832-20.256-33.744-48.288-50.368l62.56-204.256-104.448 0.192-0.256-141.696c-2.784-26.992-22.144-43.712-50.72-43.712zM648.864 672.496c0.96-2.56 1.584-5.168 1.584-7.984 0.416-25.584 20.96-46.432 45.808-46.432 23.92 0 43.904 19.36 45.504 44.16 0.256 4.368 1.92 8.592 4.544 12-3.52 2.256-6.32 5.6-7.984 9.632-7.248 17.264-23.824 28.4-42.064 28.4-19.616 0-36.976-12.976-43.28-32.336-0.88-2.8-2.256-5.344-4.112-7.44zM696.256 574.784c-37.056 0-69.12 23.408-82.448 56.352l-3.504-1.952c-6.64-3.664-14.88-3.584-21.456 0.352-6.672 3.872-10.688 10.976-10.688 18.672v79.312c0 9.2 5.872 17.424 14.544 20.512 8.672 2.976 18.304 0.16 24.096-7.008l12.8-16.112c16.464 19.088 40.56 30.656 66.656 30.656 24.288 0 46.896-9.904 63.344-26.8l9.744 12.272c5.776 7.168 15.408 9.984 24.080 7.008 8.672-3.088 14.544-11.312 14.544-20.512v-79.296c0-7.696-4.128-14.8-10.656-18.672-6.080-3.584-13.52-4.016-19.92-1.12-13.92-31.744-45.216-53.664-81.136-53.664z" />
<glyph unicode="&#xe613;" glyph-name="ame-disabled" d="M940.112 603.904l-236.912 236.896 32.064 34.64 239.568-239.472zM739.792 608.432l-32.144 32.064 237.344 239.92 34.736-34.816zM819.12 158.608h-74.88l-98.512 270.48-267.376 0.080-3.552 63.616 186.64 0.096v70.608h-191.872l-9.328 143.552c-11.552-7.104-24.96-11.36-39.536-11.36-10.912 0-21.232 2.384-30.656 6.384l22.672-342.24 284.672-0.272 102.96-265.616h118.864l-0.096 64.672zM288.736 725.504c9.408-4.096 19.728-6.4 30.56-6.4 14.56 0 28.064 4.272 39.616 11.36 22.032 13.424 36.864 37.664 36.864 65.28 0 42.368-34.288 76.752-76.464 76.752-42.208 0-76.384-34.384-76.384-76.752-0.016-31.424 18.896-58.336 45.808-70.24zM406.512 89.952c-141.408 0-256 114.928-256 256.976 0 81.184 37.584 153.504 96.304 200.576l-48.672 58.704c-75.328-61.104-123.552-154.464-123.552-259.28 0-184.032 148.608-333.184 331.936-333.184 88.032 0 168.16 34.464 227.504 90.784l-74.992 36.336c-42.64-31.824-95.312-50.912-152.528-50.912z" />
<glyph unicode="&#xe614;" glyph-name="checkmark" d="M920.832 627.248l-460.064-439.584c-10.864-10.368-25.856-16.784-42.432-16.784s-31.6 6.4-42.464 16.784l-260.016 248.464c-10.864 10.384-17.6 24.688-17.6 40.56 0 31.664 26.912 57.312 60.048 57.312 16.576 0 31.584-6.416 42.368-16.8l217.648-207.936 417.616 399.072c10.864 10.384 25.856 16.8 42.448 16.8 33.136 0 60.032-25.648 60.032-57.376 0-15.792-6.72-30.096-17.584-40.512z" />
<glyph unicode="&#xe615;" glyph-name="day" d="M722.048 279.76c11.632 0 22.176-4.64 29.664-12.336l21.824-21.616 76.16-76.336c7.664-7.696 12.336-18.272 12.336-29.872 0-23.248-18.752-42.032-42.016-42.032-11.632 0-22 4.848-29.664 12.336l-97.984 98.16c-7.664 7.504-12.32 18.032-12.32 29.664 0 23.264 18.784 42.032 42 42.032zM512 195.728c23.248 0 42.016-18.768 42.016-42v-112.096c0-23.248-18.768-42.176-42.016-42.176-23.232 0-42.016 18.928-42.016 42.176v112.096c0 23.248 18.784 42 42.016 42zM217.936 490c23.232 0 42-18.768 42-42.016 0-23.232-18.768-42.016-42-42.016h-111.92c-23.248 0-42.016 18.784-42.016 42.016 0 23.248 18.768 42.016 42.016 42.016h111.92zM301.952 616.224c-11.616 0-21.984 4.832-29.504 12.336h-0.176l-97.968 97.968c-7.52 7.68-12.336 18.256-12.336 29.856 0 23.232 18.784 42.016 42.016 42.016 11.616 0 22.176-4.656 29.68-12.336l98.144-98.144h-0.176c7.68-7.68 12.336-18.064 12.336-29.664-0.016-23.264-18.784-42.032-42.016-42.032zM331.808 208.096l-98.144-98.16c-7.504-7.504-18.064-12.336-29.68-12.336-23.232 0-42.016 18.784-42.016 42.032 0 11.616 4.832 22.176 12.336 29.872l76.16 76.336 21.808 21.616c7.696 7.696 18.24 12.336 29.68 12.336 23.248 0 42-18.768 42-42 0-11.664-4.64-22.192-12.144-29.696zM512 700.24c-23.232 0-42.016 18.784-42.016 42.016v112.256c0 23.248 18.784 42.016 42.016 42.016 23.248 0 42.016-18.768 42.016-42.016v-112.272c0-23.232-18.768-42-42.016-42zM512 532.016c-46.304 0-84.016-37.536-84.016-84.032 0-46.48 37.712-84.016 84.016-84.016 46.48 0 84.032 37.536 84.032 84.016 0 46.496-37.552 84.032-84.032 84.032zM512 279.76c-62.56 0-117.28 34.528-146.048 85.456l-16.64 41.472c-3.392 13.248-5.36 27.008-5.36 41.296 0 92.976 75.264 168.24 168.048 168.24s168.048-75.264 168.048-168.24c0-92.768-75.264-168.224-168.048-168.224zM849.696 726.512l-97.984-97.968h-0.176c-7.504-7.504-17.872-12.336-29.504-12.336-23.216 0-42 18.768-42 42.016 0 11.616 4.816 21.984 12.512 29.664h-0.208l21.824 21.808 76.16 76.336c7.664 7.68 18.048 12.336 29.664 12.336 23.264 0 42.016-18.784 42.016-42.016 0.032-11.584-4.624-22.144-12.304-29.84zM918.176 405.968h-112.080c-23.248 0-42.016 18.784-42.016 42.016 0 23.248 18.768 42.016 42.016 42.016h112.080c23.056 0 41.824-18.768 41.824-42.016 0-23.232-18.768-42.016-41.824-42.016z" />
<glyph unicode="&#xe616;" glyph-name="enlarge" d="M406.112 501.040c-14.32 0-27.248 5.68-36.864 14.912l-263.36 263.552v-84.128c0-29.232-23.536-52.96-52.944-52.96-29.216 0-52.96 23.712-52.96 52.96v211.968c0.016 29.424 23.744 53.136 52.976 53.136h211.984c29.2 0 52.944-23.712 52.944-53.136 0-29.216-23.728-52.944-52.944-52.944h-84.128l263.344-263.536c9.216-9.632 14.912-22.56 14.912-36.88-0.016-29.216-23.728-52.944-52.96-52.944zM444.16 305.152l-263.344-263.568h84.128c29.2 0 52.944-23.696 52.944-52.928 0-29.424-23.728-53.136-52.944-53.136h-211.984c-29.232 0-52.96 23.712-52.96 53.136v211.984c0 29.2 23.728 52.944 52.96 52.944 29.408 0 52.944-23.728 52.944-52.944v-84.144l263.36 263.568c9.616 9.2 22.544 14.896 36.864 14.896 29.232 0 52.96-23.712 52.96-52.96-0.032-14.304-5.712-27.248-14.928-36.848v0zM971.056 642.416c-29.424 0-52.96 23.712-52.96 52.96v84.128l-263.328-263.552c-9.616-9.216-22.56-14.912-36.864-14.912-29.232 0-52.96 23.712-52.96 52.944 0 14.32 5.68 27.248 14.896 36.88l263.36 263.536h-84.112c-29.216 0-52.96 23.712-52.96 52.944 0 29.424 23.728 53.136 52.96 53.136h211.968c29.232 0 52.944-23.712 52.944-53.136v-211.968c0-29.232-23.712-52.96-52.944-52.96zM971.056-64.48h-211.968c-29.216 0-52.96 23.712-52.96 53.136 0 29.216 23.728 52.928 52.96 52.928h84.112l-263.36 263.568c-9.2 9.6-14.896 22.544-14.896 36.848 0 29.232 23.712 52.96 52.96 52.96 14.304 0 27.248-5.68 36.864-14.896l263.344-263.568v84.144c0 29.2 23.536 52.944 52.96 52.944 29.216 0 52.944-23.728 52.944-52.944v-211.984c-0.016-29.424-23.728-53.136-52.96-53.136z" />
<glyph unicode="&#xe617;" glyph-name="heli" horiz-adv-x="2309" d="M154.048 56.48c18.32 21.648 26.512 40.32 26.512 63.488 0 43.824-28.992 78.848-91.584 78.848-56.448 0-88.976-35.008-88.976-35.008l22.64-33.584c2.624 2.048 27.424 27.984 62.928 27.984 31.296 0 50.528-19.568 50.528-44.112 0-15.616-6.48-25.856-24.464-45.632l-107.296-123.344v-9.12h183.184v40.16h-104.096l70.624 80.32zM307.872 99.968c-13.2 0-24.464-1.376-35.024-2.864l1.92 62.816h128.912v40.16h-168.48l-4.208-144.944 5.92-3.968c0.448 0.448 20.128 8.736 62.336 8.736 49.968 0 74.528-16.288 74.528-39.92 0-26.176-24-42.8-66.336-42.8-46.080 0-76.912 26.528-76.912 26.528l-21.376-30.832c0 0 36.288-35.872 99.312-35.872 76 0 109.792 35.408 109.792 81.392-0.032 43.904-29.152 81.568-110.384 81.568zM642.128 96.8c-21.392 0-35.136-6.384-44.144-15.408h-2.048c-11.152 9.68-30.032 15.408-57.68 15.408-27.872 0-45.392-5.152-57.328-14.336h-2.176l-5.568 12.304h-26.848v-156h41.872v99.984c0 17.648 14.096 37.232 39.12 37.232 24.576 0 37.776-16.624 37.776-39.28v-97.936h41.872v99.984c0 18.112 9.872 37.232 27.168 37.232 17.072 0 25.952-18.112 25.952-43.264v-93.952h42v101.024c0 41.6-24.8 57.008-59.968 57.008zM776.16 197.376c-14.112 0-24.8-9.936-24.8-22.432 0-12.624 10.688-22.208 24.8-22.208s25.264 9.584 25.264 22.208c0 12.496-11.152 22.432-25.264 22.432zM755.248 96.336h41.872v-157.584h-41.872v157.584zM942.16 96.8c-28.784 0-46.64-5.712-57.216-14.336h-2.176l-5.568 12.304h-26.976v-156h41.968v101.024c0 17.52 14.112 36.192 39.136 36.192 24.464 0 37.664-18.112 37.664-43.264v-93.952h42v101.024c0.016 41.6-25.264 57.008-68.832 57.008zM2272.976 890.352h-801.616v33.92c0 19.808-16.080 35.728-35.888 35.728s-35.824-15.92-35.824-35.728v-33.92h-819.168c-19.792 0-35.84-16.032-35.84-35.728s16.048-35.616 35.84-35.616h819.168v-71.44h-108.64c-59.296 0-107.536-48.016-107.536-106.928v-0.448h-143.344c-19.792 0-35.856-16.080-35.856-35.728v-34.144h-500.032c-19.68 0-35.824-15.92-35.824-35.712 0-19.68 16.144-35.616 35.824-35.616h139.136c-15.92-61.664-72.24-107.312-139.136-107.312-79.072 0-143.584 64.192-143.584 142.928 0 78.848 64.496 143.008 143.584 143.008 38.448 0 74.528-14.912 101.616-41.856 13.984-14.016 36.64-14.016 50.752 0 13.984 13.888 13.984 36.496 0 50.384-40.752 40.512-94.8 62.816-152.352 62.816-118.672 0-215.264-96.144-215.264-214.336 0-118.096 96.592-214.272 215.264-214.272 106.608 0 195.12 77.408 212.32 178.656h287.712v-72.272c0-78.736 64.304-142.688 143.376-142.688h93.184c10.816-10.56 21.728-21.824 33.072-33.536 65.664-67.616 139.936-144.272 257.040-144.272h11.936v-73.84h-298.432c-19.792 0-35.824-16.032-35.824-35.712 0-19.696 16.032-35.632 35.824-35.632h859.264c50.032 0 91.808 26.288 114.56 72.016 8.752 17.648 1.456 39.024-16.208 47.792-17.712 8.752-39.248 1.6-48.128-16.16-7.248-14.704-21.904-32.32-50.24-32.32h-130.64v73.856h213.072c19.792 0 35.712 15.92 35.856 35.584l0.224 102.88c0 49.040-31.744 81.344-58.24 97.52-8.784 25.472-29.136 80.432-60.064 135.952-59.968 107.52-128.112 162.032-202.544 162.032h-216.48v0.432c0 58.912-48.128 106.928-107.536 106.928h-106.032v71.44h801.632c19.792 0 35.856 15.92 35.856 35.616s-16.048 35.728-35.84 35.728zM1901.408 32.384h-286.816v73.856h286.816v-73.856zM1686.048 568.848h215.36c79.872 0 148.848-131.52 182.384-215.824h-353.856c-2.384 0.416-4.784 0.672-7.248 0.672-20.304 0-36.64 16.384-36.64 36.384v178.768zM1595.92 674.528l23.776-23.776v-118.912l-5.344-0.112v-141.664c0-56.432 43.776-102.832 99.456-107.376 2.816-0.704 5.76-1.024 8.88-1.024h403.2c8.64-5.136 24.704-17.328 24.704-36.88l-0.224-67.216h-619.408c-86.608 0-146.992 62.224-205.472 122.528-14.944 15.36-30.368 31.28-45.872 45.632-6.624 6.128-15.36 9.648-24.432 9.648h-107.536c-39.488 0-71.664 32-71.664 71.344v142.128h136.992c21.28 42.4 50.288 105.68 50.288 105.68h332.656z" />
<glyph unicode="&#xe618;" glyph-name="night" d="M279.712 119.984c22.992-12.432 47.136-22.576 72.464-30.176 36.24-10.928 73.84-16.352 111.232-16.352 168.496 0 314.784 106.528 364.096 265.312 29.6 95.648 19.664 196.944-28.064 285.376-47.728 88.24-127.6 152.912-224.8 182.128-25.344 7.6-51.040 12.672-76.96 15.008 52.784-34.672 96.432-81.808 127.024-138.496 48.896-90.384 59.008-194.016 28.64-291.824-50.256-162.064-199.872-270.976-372.064-270.976h-1.568zM463.6 0c-45.008 0-89.792 6.624-133.248 19.664-84.928 25.52-159.936 74.608-216.624 141.648-10.912 13.040-11.488 31.712-1.168 45.392 10.336 13.616 28.64 18.48 44.416 11.664 10.704-4.48 21.616-8.368 32.336-11.488 30-9.168 60.992-13.648 91.952-13.648 139.28 0 260.064 88.064 300.768 219.152 24.56 79.072 16.352 162.848-23.184 235.904-39.344 73.040-105.376 126.432-185.84 150.576-10.528 3.312-21.824 6.032-33.312 8.176-16.944 3.12-29.424 17.344-30.192 34.288-0.784 16.752 10.32 32.144 26.88 36.816 84.736 24.352 175.328 23.76 259.872-1.76 116.32-34.864 211.952-112.208 269.024-217.984 57.056-105.584 68.96-226.752 33.52-341.088-58.832-189.712-233.76-317.312-435.2-317.312z" />
<glyph unicode="&#xe619;" glyph-name="fitness" d="M888.384 888.608c-1.552 36.896-31.072 75.28-77.488 71.072-152.512-13.648-277.024-90-350.768-214.992-45.328-58.432-134.368-230.592-168.656-325.968-51.84-100.032-102.8-225.184-151.392-372.192-8.608-25.936-4.928-52.096 10.32-73.632 16.080-22.768 42.784-36.896 69.6-36.896 30.912 0 55.584 18.752 66.016 50.256 29.008 87.856 59.264 168.656 90.112 240.848 34.048-77.008 70.704-157.968 110.16-238.832 12.944-26.512 35.904-41.696 62.88-41.696 27.952 0 55.952 16.368 71.376 41.648 14.592 24.032 15.712 52.672 3.008 78.672-42.896 87.84-83.104 177.376-120.352 262.032l1.712 0.304 192.752 36.784c38.144 7.28 54.624 47.456 48.448 82.144-11.392 64.432-43.888 112.672-79.648 151.6 13.6-6.896 28.864-10.88 45.056-10.88 55.824 0 101.264 46.208 101.264 102.992s-45.44 102.992-101.264 102.992c-1.456 0-2.88-0.16-4.336-0.224 37.152 16.784 79.504 27.408 127.008 31.664 33.92 2.976 55.68 28.016 54.192 62.304zM775.664 691.84c0-35.952-28.768-65.264-64.128-65.264s-64.192 29.312-64.192 65.264c0 35.952 28.832 65.2 64.192 65.2s64.128-29.264 64.128-65.2zM613.136 667.952c-8.128 8.976-17.248 17.488-26.768 25.664 9.84 14.432 20.736 27.696 32.624 39.84-5.568-12.736-8.72-26.8-8.72-41.616 0.016-8.24 1.072-16.208 2.864-23.888zM830.976 863.872c-129.984-11.68-225.84-66.848-285.040-164.144l-8.608-14.112 12.752-10.496c23.2-19.040 48.528-41.232 54.816-63.12l1.44-4.992 3.728-3.552c44.192-41.648 86.848-90.176 99.552-162.016 2.416-13.584-1.904-35.12-18.816-38.384l-192.736-36.72c-2.080-0.4-4.144-0.656-6.176-0.656-2.848 0-5.632 0.416-8.416 1.248l-17.376 5.040-6.112-19.456c-0.416-1.312-0.832-2.56-1.248-3.792l-1.968-6.768 2.784-6.336c40.16-91.488 83.84-189.36 130.816-285.536 8.896-18.208 4.144-32.864-1.376-41.936-8.72-14.24-24.672-23.776-39.808-23.776-12.928 0-22.896 6.944-29.6 20.704-45.856 93.904-87.92 188.176-126.544 276.016l-16.784 38.096-17.024-37.968c-37.2-82.704-73.664-177.904-108.384-282.912-6.752-20.304-20.528-24.56-30.848-24.56-14.656 0-30.496 8.544-39.44 21.168-5.696 8.080-11.28 21.552-5.28 39.568 48.176 145.664 98.528 269.392 149.664 367.68l1.008 2.432c32.512 91.12 121.376 263.28 164.016 317.552l1.424 2.128c67.408 114.912 182.016 185.216 322.784 197.792 1.184 0.128 2.304 0.176 3.392 0.176 22.24 0 33.152-20.64 33.744-35.296 0.4-9.664-2.8-21.536-20.336-23.072zM486.88 425.12l159.056 30.304-11.216 22.432c-10.256 20.592-23.84 39.504-42.768 59.504l-13.936 14.768-13.344-15.312c-21.12-24.208-39.808-49.536-55.536-75.28l-22.256-36.416zM578.912 495.6c3.44-4.272 6.64-8.48 9.616-12.688l-22.848-4.384c4.256 5.728 8.656 11.44 13.232 17.072z" />
<glyph unicode="&#xe61a;" glyph-name="minus" d="M114.24 498.72h821.76v-115.024h-821.76v115.024z" />
<glyph unicode="&#xe61b;" glyph-name="movement" d="M746.944 429.008l-98.304 109.152c-3.2 3.568-7.184 13.472-7.36 18.336l-3.632 112.656v3.264c0 27.456-22.192 49.76-49.472 49.76h-11.344c44.448 18.656 75.76 62.784 75.76 114.192 0 68.16-55.104 123.632-122.928 123.632-67.68 0-122.784-55.472-122.784-123.632-0.048-32.992 12.752-64 36.016-87.376 11.52-11.648 24.944-20.672 39.552-26.816h-28.688c-22.608 0-46.032-14.944-55.696-35.536l-129.504-276.912c-5.632-12.096-6.224-25.632-1.6-38.272 4.688-12.496 13.952-22.336 26.16-27.744l19.040-8.496c6.4-2.848 13.168-4.256 20.176-4.256 19.104 0 36.896 10.976 45.376 27.936l26.576 53.152v-42.192l-102.496-323.12c-5.808-18.224-4.032-37.44 4.976-54.096 9.008-16.624 24.080-28.528 42.48-33.52l6.752-1.84c6.048-1.664 12.288-2.48 18.576-2.48 31.328 0 59.856 20.816 69.296 50.592l80.736 254.368 15.184-37.504c7.664-18.816 16.192-53.024 18.336-73.2l16.256-154.24c3.6-34.080 30.528-58.816 64.048-58.816 5.392 0 10.848 0.656 16.192 1.968l6.88 1.712c36.128 8.768 61.696 46.144 56.96 83.28l-24.080 188.032c-3.264 25.744-13.888 64.56-24.224 88.336l-32.496 75.344v1.488l27.6-28.944c9.248-9.728 21.664-15.072 34.944-15.072 13.472 0 25.984 5.456 35.216 15.36l10.88 11.584c18.176 19.44 18.48 50.16 0.64 69.92zM442.912 836.368c0 48.16 38.976 87.328 86.768 87.328 47.872 0 86.864-39.152 86.864-87.328s-38.992-87.376-86.864-87.376c-23.12 0-44.896 9.072-61.328 25.632-16.368 16.48-25.44 38.432-25.44 61.744zM720.064 383.936l-10.88-11.568c-4.848-5.168-13.024-5.232-17.904-0.064l-89.632 94.192v-100.608l35.472-81.024c8.848-20.464 18.688-56.416 21.472-78.496l24.096-188.032c2.432-19.040-11.152-38.928-29.664-43.44l-6.88-1.664c-2.624-0.656-5.184-0.944-7.712-0.944-14.96 0-26.576 10.848-28.256 26.384l-16.256 154.176c-2.496 23.776-11.808 61.024-20.752 83.104l-52.752 129.984-110.864-349.536c-5.696-17.84-25.744-29.184-44.128-24.144l-6.832 1.824c-8.768 2.368-15.888 8.080-20.16 15.904-4.272 7.888-5.104 16.976-2.32 25.68l102.208 322.304 2.016 5.2v201.872l-94.8-189.824c-3.264-6.528-12.096-9.776-18.8-6.768l-19.104 8.416c-3.264 1.488-5.696 4.032-6.88 7.296-1.248 3.392-1.12 6.896 0.416 10.144l129.488 276.848c3.616 7.712 14.592 14.768 23.072 14.768h134.416c7.408 0 13.472-6.112 13.472-13.52l3.632-117.040c0.4-13.408 7.696-31.68 16.656-41.584l98.32-109.168c4.992-5.488 4.928-15.168-0.16-20.672z" />
<glyph unicode="&#xe61c;" glyph-name="plus" d="M936 498.72h-353.28v352.96h-115.2v-352.96h-353.28v-115.040h353.28v-353.12h115.2v353.12h353.28z" />
<glyph unicode="&#xe61d;" glyph-name="yoga" d="M819.312 77.44c-8.336 68.24-73.040 76.24-164.288 81.808v221.024c71.072 35.92 158.752 99.168 161.328 233.28 2.032 105.344-85.216 178.352-155.296 236.992-30.56 25.52-49.008 42.288-54.992 49.776-5.184 33.84-35.040 59.68-70.016 59.68-8.592 0-17.088-1.584-25.088-4.608-7.984 3.024-16.48 4.608-25.024 4.608-35.040 0-64.832-25.792-70.096-59.68-8.992-11.392-43.264-40.032-55.088-49.888-70.032-58.592-157.216-131.536-155.136-236.896 2.688-140.96 83.408-192 159.68-228.24v-224.512c-89.152-7.216-152.336-16.256-160.608-83.344-3.392-27.92 5.312-55.248 24.544-76.944 46.272-52.192 158.8-63.904 245.6-64.496 13.088 0 25.904 3.408 37.184 9.808 11.28-6.4 24.096-9.808 37.232-9.808h0.56c86.24 0.656 198.832 12.32 244.992 64.56 19.2 21.632 27.904 48.96 24.512 76.88zM765.536 26.080c-28.192-31.856-106.944-50.592-216.016-51.36l0.112-19.392-0.384 19.392c-8.928 0-17.52 3.28-24.32 9.184l-12.928 11.408-12.928-11.408c-6.736-5.904-15.392-9.184-24.528-9.184-109.072 0.768-187.824 19.504-216.080 51.36-11.776 13.296-17.136 29.888-15.056 46.704 4.496 36.592 42.768 43.008 142.928 50.816l17.968 1.44v263.376c0 2.624 0.272 5.136 0.544 7.664l1.696 15.216-23.008 8.288c-72 34-136.672 74.784-138.976 194.656-1.648 86.96 77.648 153.28 141.328 206.56 37.728 31.536 59.408 51.088 66.096 63.856l1.808 3.504 0.336 3.952c1.264 16.64 14.96 29.184 31.824 29.184 5.472 0 10.672-1.36 15.44-4.048l9.584-5.36 9.584 5.36c4.816 2.672 10.016 4.048 15.504 4.048 16.816 0 30.496-12.544 31.808-29.248l0.272-3.888 1.872-3.504c6.624-12.768 29.184-33.024 65.92-63.744 63.792-53.328 143.136-119.76 141.456-206.672-2.256-118.384-81.488-171.504-151.136-204.976l-10.96-5.632 0.496-12.288c0.048-0.88 0.096-1.744 0.272-2.96v-265.584l18.336-1.088c104.64-6.192 141.664-11.664 146.208-48.976 2.064-16.768-3.296-33.36-15.072-46.656zM713.632 615.456c1.088 56.672-65.216 112.208-118.544 156.832-26.784 22.336-52.032 43.424-68.896 64.336l-15.232 18.848-15.168-18.848c-16.864-20.864-42.048-41.952-68.832-64.288-53.328-44.624-119.696-100.208-118.608-156.88 1.808-93.536 47.424-114.112 130.336-151.408 0 0 66.816-19.664 152.224 3.44 71.792 23.408 120.96 58.768 122.72 147.968zM507.344 509.12c-52.272 0-94.816 42.24-94.816 94.16s42.544 94.112 94.816 94.112c52.288 0 94.832-42.192 94.832-94.112s-42.544-94.16-94.832-94.16zM604.4 516.464c20.912 23.008 33.648 53.456 33.648 86.832 0 71.52-58.608 129.744-130.704 129.744-72.032 0-130.656-58.224-130.656-129.744 0-30.48 10.656-58.496 28.416-80.672-42.384 22.128-56.784 41.2-57.776 93.6-0.768 38.224 60.24 89.264 104.816 126.56 21.344 17.84 41.84 34.928 58.816 52.56 17.088-17.632 37.568-34.768 59.040-52.672 44.448-37.248 105.408-88.224 104.64-126.448-1.088-56.592-17.52-74.16-70.24-99.76z" />
<glyph unicode="&#xe61e;" glyph-name="home" d="M839.248-13.344h-249.728v330.432h-155.040v-330.432h-239.344c-75.392 0-75.392 54.128-75.392 74.496v298.128h-58c-40.48 0-54.176 21.968-58.176 31.376-3.984 9.408-10.272 34.32 17.456 63.040l428.976 429.408c16.176 16.784 38.336 26.224 62 26.224 23.68 0 45.84-9.44 62.4-26.608l428.224-428.64c28.096-29.12 21.808-54.016 17.84-63.424-4-9.408-17.712-31.376-58.192-31.376h-58v-298.128c0.016-18.4 0.016-74.496-65.024-74.496zM652.208 49.344h187.040c0.784 0 1.44 0 2.048 0.032 0.32 3.904 0.32 9.056 0.32 11.776v360.816h104.512l-416.448 416.848c-10.032 10.368-25.664 10.016-34.944 0.384l-416.848-417.232h104.528v-360.816c0-2.496 0-7.44 0.32-10.816 2.256-0.464 6.16-1.008 12.4-1.008h176.672v330.4h280.4v-330.384z" />
<glyph unicode="&#xe61f;" glyph-name="ame-host" d="M509.36 397.696c146.368 0 265.472 119.168 265.472 265.632 0 146.416-119.088 265.52-265.472 265.52-146.496 0-265.68-119.088-265.68-265.52-0.016-146.448 119.184-265.632 265.68-265.632zM509.36 868.016c112.832 0 204.64-91.808 204.64-204.688 0-112.912-91.808-204.8-204.64-204.8-112.96 0-204.864 91.888-204.864 204.8 0 112.88 91.904 204.688 204.864 204.688zM1023.408 146.944c0.256 4.928 5.136 121.376-73.424 203.984-49.44 51.984-119.6 78.336-208.56 78.336h-16.208l-111.824-166.208 1.072 132.304-101.536-49.536-103.008 53.184v-137.808l-110 168.064h-16.432c-207.92 0-282.768-144.56-283.488-280.8v-181.312h60.832v181.92c0.336 64.144 21.52 210.928 206.432 219.008l241.664-369.232 248.448 369.232c63.744-2.768 113.536-22.496 148.192-58.688 60.608-63.376 57.12-158.528 57.040-161.008l0.56-167.008 60.832 0.208-0.592 165.36zM426.448 235.936l85.712 41.824 82.464-42.576-85.008-126.336-83.168 127.088zM708.72 156h149.728v-60.848h-149.728v60.848z" />
<glyph unicode="&#xe620;" glyph-name="ame-pool" d="M416.096 357.024c47.76-5.872 96.736-20.656 149.648-45.088 22.032-10.32 45.856-23.872 65.008-34.784l1.152-0.656c21.824-12.88 43.84-24.192 60.56-32.624l50.992-25.744-147.872 292.688-82.688 145.040 142.832 78.576c15.824 8.672 27.312 23.024 32.352 40.384 5.008 17.344 3.008 35.6-5.68 51.424-11.888 21.616-34.608 35.024-59.28 35.024-11.312 0-22.576-2.896-32.544-8.352l-198.4-109.12c-16.416-9.040-28.048-24.112-32.48-41.44-5.536-17.472-3.52-36.528 5.488-52.24l92.864-162.832-12.848-11.392-151.632-86.48-111.84-62.288 121.296 25.504c36.288 7.664 75.168 9.152 113.072 4.4zM465.472 444.224l40.288 35.2-108 189.36c-3.872 6.752-4.688 14.656-2 23.216 2.112 8.176 7.264 14.88 14.48 18.88l198.384 109.12c14.304 7.808 33.072 2.208 40.816-11.84 3.856-7.024 4.768-15.136 2.528-22.848s-7.344-14.080-14.368-17.936l-176.304-96.976 101.168-177.328 94.912-187.92c-2.224 1.248-4.432 2.56-6.656 3.84l-1.392 0.816c-19.712 11.248-44.272 25.216-67.744 36.224-56.576 26.128-109.2 41.904-160.848 48.288-12.448 1.568-25.104 2.56-37.712 2.912l82.448 46.992zM633.856 504.832c-8.496-30.928-4.416-63.216 11.44-90.896 21.216-37.344 61.136-60.528 104.208-60.528 20.736 0 41.232 5.44 59.264 15.776 57.392 32.72 77.472 106.064 44.752 163.488-21.28 37.248-61.216 60.384-104.208 60.384-20.688 0-41.184-5.456-59.248-15.744-27.76-15.872-47.728-41.6-56.208-72.48zM749.312 555.488c29.536 0 56.96-15.888 71.568-41.44 22.448-39.408 8.656-89.776-30.752-112.24-12.368-7.088-26.432-10.848-40.624-10.848-29.568 0-56.992 15.904-71.584 41.6-10.88 18.992-13.664 41.136-7.824 62.32 5.824 21.232 19.552 38.928 38.592 49.792 12.4 7.088 26.448 10.816 40.624 10.816zM1007.008 198.432c-0.896-0.464-90.336-45.184-193.936-40.16-104.608 5.088-149.584 30.848-201.648 60.688-50.784 29.088-108.336 62.096-228.64 75.632-169.936 19.040-374.176-131.12-382.784-137.536l22.4-30.16c2 1.472 200.976 147.808 356.176 130.32 112.592-12.656 164.24-42.256 214.176-70.848 53.936-30.912 104.88-60.128 218.496-65.632 6.192-0.32 12.32-0.432 18.368-0.432 105.040 0 190.576 42.656 194.368 44.592l-16.976 33.536zM597.088 119.184c-35.232 17.008-75.184 36.288-129.904 56.432-159.936 58.912-286.896-30.624-292.224-34.496l21.952-30.464c1.136 0.816 116.528 81.568 257.264 29.68 53.024-19.536 92.096-38.368 126.576-55.008 60.368-29.152 104.944-50.624 174.704-50.624 4.16 0 8.384 0.064 12.72 0.224l-1.344 37.568c-67.808-2.4-108.432 17.104-169.744 46.688z" />
<glyph unicode="&#xe621;" glyph-name="healthy" d="M321.632 472.992h112.592c-79.168 65.728-123.424 119.888-139.472 137.408 21.968-14.56 83.152-65.408 154-105.664 2.496 23.44 7.648 48.112 15.488 68.928 3.408 8.88 6.928 17.648 10.576 26.288-51.744 82.128-125.472 122.96-271.84 101.92-16.832-2.4-27.76-18.784-23.536-35.264 12.384-48.144 47.776-141.744 142.192-193.616zM1002.256 831.84c-45.28 10.928-87.712 16.048-127.392 16.048-195.072 0-379.552-161.424-393.344-360.464 0.576-0.224 19.584 20.368 28.896 30.16 121.28 126.352 254.208 171.968 297.216 179.808-56.416-34.576-182.672-97.136-252.512-224.4h221.008c184.48 76.768 234.752 258.192 247.408 326.112 2.704 14.752-6.592 29.216-21.28 32.736zM822.256 453.392h-796.448c-14.24 0-25.808-11.584-25.808-25.84h0.096v-3.072c0-207.84 168.448-376.352 376.352-376.352h95.264c207.808 0 376.336 168.416 376.336 376.352v3.072c0.016 14.256-11.552 25.84-25.792 25.84z" />
<glyph unicode="&#xe622;" glyph-name="insulin" d="M523.088 787.904c47.504 0 85.968 38.528 85.968 86.064s-38.464 86.032-85.968 86.032c-47.536 0-86.096-38.496-86.096-86.032s38.56-86.064 86.096-86.064zM610.752 770h-175.776c-97.84 0-97.104-88.752-97.152-96.112l0.032-272.704c1.6-14.704 16.080-31.472 34.144-31.472 17.92 0 31.104 16.224 32.688 30.928l30.56-434.288c2.272-22.144 17.84-30.352 37.088-30.352 19.136 0 34.72 8.208 37.008 30.352h27.104c2.336-22.144 17.888-30.352 36.96-30.352 19.312 0 34.848 8.208 37.184 30.352l31.472 434.624c0-14.736 14.288-31.376 32.256-31.376s32.336 16.88 33.936 31.584l-0.88 272.704c0 0 4.816 96.112-96.624 96.112zM1023.408 407.072c0 141.92-77.536 272.24-202.368 340.032l-27.44-50.512c106.288-57.744 172.32-168.688 172.32-289.52 0-106.224-51.008-204.704-135.472-266.224l5.312 35.968-56.88 8.416-18.528-125.056 122.752-25.008 11.472 56.336-26.816 5.472c97.12 72.432 155.648 186.832 155.648 310.096zM129.424 693.664l26.816-5.456c-97.136-72.4-155.664-186.816-155.664-310.080 0-141.936 77.536-272.256 202.384-340.032l27.44 50.496c-106.288 57.76-172.32 168.72-172.32 289.552 0 106.192 51.008 204.704 135.488 266.208l-5.312-35.968 56.864-8.416 18.528 125.056-122.72 25.008-11.504-56.368z" />
<glyph unicode="&#xe623;" glyph-name="toxins" d="M849.712 880.32l-212.976-226.512c-6.208 4.48-12.608 8.688-19.264 12.56l72.032 113.808c7.664-1.248 15.808-0.096 23.056 4.096 16.656 9.696 22.432 30.96 12.704 47.6-9.664 16.752-30.976 22.528-47.664 12.848-16.656-9.664-22.4-30.992-12.736-47.728 0.944-1.664 2-3.072 3.216-4.544l-72.544-114.592c-24.544 11.216-51.12 18.768-79.136 21.408l14.688 87.024c5.68 1.36 10.912 4.192 14.64 9.024 8.496 11.328 6.416 27.376-4.848 35.904-11.296 8.64-27.392 6.432-35.952-4.816-8.528-11.248-6.368-27.376 4.832-35.92 1.072-0.72 2.368-0.992 3.472-1.712l-15.008-88.672c-1.904 0.064-3.712 0.288-5.584 0.288-32.112 0-62.736-6.288-90.784-17.472l-69.456 127.616c6.768 8.544 10.88 19.232 10.688 30.976-0.432 27.12-22.656 48.784-49.792 48.224-27.040-0.416-48.592-22.656-48.192-49.744 0.416-27.040 22.656-48.544 49.76-48.16 2.704 0.048 5.296 0.512 7.856 0.928l67.872-124.672c-33.936-19.168-62.896-46.24-84.368-78.624l-101.392 79.552c2.016 7.424 1.648 15.632-1.712 23.28-7.92 17.552-28.528 25.424-46.112 17.488-17.648-7.888-25.504-28.56-17.6-46.176 8-17.52 28.624-25.36 46.208-17.456 1.712 0.8 3.28 1.872 4.848 2.848l103.040-81.008c-15.216-29.136-24.864-61.6-27.472-96.224l-152.112 0.288c-4.288 10-11.696 18.784-22.048 24.208-23.968 12.656-53.664 3.52-66.176-20.48-12.592-23.952-3.392-53.6 20.464-66.144 23.968-12.688 53.648-3.424 66.272 20.528 1.296 2.32 2.080 4.768 2.96 7.264l150.56-0.352c1.248-19.616 4.544-38.768 10.096-56.976l-97.312-37.488c-5.376 5.568-12.656 9.424-20.992 10.416-19.12 2.192-36.384-11.584-38.592-30.656-2.208-19.136 11.472-36.592 30.704-38.704 19.104-2.16 36.384 11.616 38.56 30.704 0.176 1.92 0.16 3.664 0.128 5.664l95.84 36.928c9.248-21.92 21.664-42.208 36.544-60.336l-196.832-209.312 48.624-45.712 745.616 793.008-48.624 45.712zM998.496 405.968c-28.32 21.472-68.768 16.128-90.432-12.304-2.048-2.912-3.728-5.904-5.408-8.88l-158.336 26.832c1.472 10.976 2.464 22.048 2.464 33.408 0 45.952-12.768 88.832-34.64 125.776l-1.168 1.552-326.032-346.72c23.728-12.384 49.696-20.96 77.168-25.008l-13.392-125.6c-7.584-1.728-14.704-5.968-19.872-12.448-11.792-15.28-9.056-37.072 6.24-49.008 15.28-11.856 37.184-8.992 49.024 6.24 11.776 15.312 8.96 37.136-6.304 49.040-1.488 1.024-3.056 1.936-4.624 2.896l13.44 126.4c4.224-0.256 8.384-0.656 12.672-0.656 32.176 0 62.832 6.336 91.056 17.488l25.008-111.264c-6.256-4.528-11.216-10.992-13.408-19.088-4.976-18.656 5.984-37.76 24.672-42.752 18.624-4.896 37.792 6 42.768 24.704 4.976 18.672-6.096 37.744-24.72 42.752-1.856 0.48-3.648 0.688-5.552 0.896l-25.856 115.184c17.984 9.344 34.528 20.832 49.616 34.288l34.272-48.256c-3.056-4.848-4.656-10.512-3.888-16.688 1.92-13.92 14.832-23.792 28.88-22.016 14.080 2 23.872 14.912 22 28.912-1.92 14.080-14.864 23.888-28.928 21.984-1.328-0.192-2.336-0.864-3.584-1.248l-35.328 49.776c26.032 26.56 45.952 58.928 57.92 95.152l162.864-27.664c3.376-14.032 11.056-27.008 23.36-36.32 28.352-21.52 68.848-16.144 90.432 12.288 21.52 28.288 15.984 68.752-12.384 90.352z" />
<glyph unicode="&#xe624;" glyph-name="beauty" d="M805.504 936.88l-16.432 23.12-20.4-19.712c-0.464-0.464-48.448-46.512-98.256-64.528-62.416-22.576-115.632-49.856-158.16-81.088l28.816-39.264c38.784 28.48 87.872 53.552 145.888 74.544 36.768 13.296 71.152 37.904 92.752 55.392 22.384-41.552 62.192-134.496 45.152-246.384-8.928-58.672-71.456-212.512-251.216-219.888l2-48.688c212.672 8.72 286.784 191.536 297.392 261.248 26.016 170.928-63.696 299.84-67.536 305.248zM762.432 783.664l-47.584 10.48c-0.336-1.44-33.168-145.68-150.224-261.216l34.224-34.672c127.216 125.536 162.16 278.928 163.584 285.408zM512.704 737.664c-20.48 21.536-49.104 32.464-85.056 32.464h-8.336c18.56 19.008 30.032 44.96 30.032 73.568 0 58.096-47.264 105.36-105.36 105.36-58.144 0-105.44-47.264-105.44-105.36 0-28.608 11.488-54.544 30.064-73.568h-6.528c-84.944 0-115.504-61.616-115.856-114.864l0.032-256.816 0.144-2.608c2.672-24.816 25.968-51.376 56.384-51.376 3.472 0 6.832 0.336 10.048 0.992l25.248-359.008c3.248-31.136 25.92-50.448 59.2-50.448 20.688 0 37.28 7.504 47.632 20.672 10.336-13.168 26.896-20.672 47.552-20.672 33.264 0 55.968 19.312 59.328 51.184l25.904 358.128c3.2-0.624 6.48-0.96 9.808-0.96 30.24 0 53.44 26.592 56.16 51.456l0.144 1.344-0.88 256.88c0.24 5.040 1.536 50.224-30.224 83.632zM343.984 900.336c31.248 0 56.656-25.408 56.656-56.656 0-31.264-25.408-56.688-56.656-56.688-31.28 0-56.72 25.424-56.72 56.688-0.016 31.248 25.44 56.656 56.72 56.656zM487.504 393.072c-2.752 0-5.808 3.664-6.048 5.168l-48.656 1.76-29.52-408.512c-0.48-4.368-0.72-6.784-10.816-6.784-9.872 0-10.128 2.4-10.592 6.784l-2.304 21.808h-69.392l-2.272-21.856c-0.448-4.336-0.704-6.736-10.624-6.736-10.016 0-10.288 2.384-10.672 5.952l-28.752 408.976-48.512 0.896c-0.304-2.752-3.584-7.36-6.56-7.36-3.248 0-7.008 4.544-7.808 7.216l-0.032 255.024c0.176 24.656 9.104 66 67.136 66h165.568c21.936 0 38.608-5.744 49.536-17.072 17.936-18.608 17.088-47.728 17.056-49.152l0.848-254.816c-0.848-2.832-4.688-7.296-7.584-7.296z" />
<glyph unicode="&#xe625;" glyph-name="heart" d="M373.408 535.232l68.496-204.128 94.48 304.608 71.824-356.144 87.152 108.096 210.416 0.032 5.312 7.2c58.704 79.808 86.048 152.352 86.048 228.288 0 152.976-120.704 272.8-274.816 272.8-78.192 0-155.392-32.912-210.336-88.88-54.96 55.968-132.16 88.88-210.336 88.88-154.080 0-274.8-119.808-274.8-272.752 0-59.504 17.36-117.808 53.072-178.304l30.48 18.016c-32.4 54.864-48.144 107.296-48.144 160.288 0 133.088 105.152 237.36 239.392 237.36 73.44 0 148.896-34.944 196.88-91.152l13.472-15.776 13.472 15.76c47.984 56.224 123.424 91.152 196.88 91.152 134.256 0 239.408-104.288 239.408-237.408 0-65.76-23.52-129.552-73.936-200.080l-209.36-0.032-50.464-62.576-84.32 418.176-103.088-332.336-60.608 180.576-102.704-203.744h-277.28v-35.408h299.072l74.336 147.488zM809.76 330.784l-5.232-5.504c-67.296-70.736-154.88-148.496-239.648-222.848l-52.88-52.544-53.696 53.296c-117.6 103.136-212.944 188.336-280.768 267.584l-26.896-23.024c69.36-81.008 165.648-167.056 283.52-270.4l77.84-77.328 77.008 76.56c82.416 72.24 168.336 148.48 235.888 218.8h199.104v35.408h-214.24z" />
<glyph unicode="&#xe626;" glyph-name="immunity" d="M649.376 677.744c-16.928 17.776-40.48 26.784-70.096 26.784h-3.68c14.336 15.52 23.312 36.096 23.312 58.848 0 47.92-38.976 86.896-86.88 86.896-47.936 0-86.944-38.976-86.944-86.896 0-22.752 8.992-43.328 23.344-58.848h-3.984c-70.128 0-95.216-50.8-95.44-94.624l0.032-209.152 0.128-2.224c2.224-20.688 21.616-42.848 46.976-42.848 2.464 0 4.88 0.224 7.216 0.608l20.496-291.184c2.656-25.952 21.52-42.080 49.264-42.080 16.656 0 30.128 5.856 38.784 16.192 8.656-10.336 22.128-16.192 38.752-16.192 27.648 0 46.56 16.096 49.392 42.704l21.008 290.448c2.288-0.368 4.624-0.576 6.992-0.576 26.048 0 44.592 22.272 46.832 42.896l0.128 1.152-0.72 209.2c0.192 4.16 1.264 41.392-24.912 68.896zM512.032 808.432c24.832 0 45.024-20.224 45.024-45.056 0-24.88-20.208-45.088-45.024-45.088-24.864 0-45.088 20.224-45.088 45.088 0 24.848 20.224 45.056 45.088 45.056zM628.032 397.456c-1.504 0-3.6 2.304-3.824 3.136l-41.808 1.52-24.032-332.64c-0.352-3.344-0.48-4.592-7.712-4.592-7.088 0-7.216 1.248-7.584 4.56l-1.968 18.736h-58.496l-1.92-18.8c-0.336-3.264-0.464-4.496-7.568-4.496-7.2 0-7.328 1.232-7.6 3.84l-23.424 333.072-41.664 0.784c-0.192-1.904-2.624-5.024-4.288-5.024-1.888 0-4.624 3.072-5.264 4.976l-0.032 207.52c0.080 19.664 7.152 52.672 53.584 52.672h134.832c17.568 0 30.896-4.56 39.6-13.584 14.288-14.8 13.632-38.080 13.584-39.28l0.688-207.344c-0.656-2.048-3.424-5.056-5.104-5.056zM512 960c-282.304 0-512-229.68-512-512 0-282.304 229.696-512 512-512 282.32 0 512 229.696 512 512 0 282.32-229.68 512-512 512zM512-22.16c-259.248 0-470.16 210.912-470.16 470.16s210.912 470.176 470.16 470.176 470.16-210.928 470.16-470.176-210.912-470.16-470.16-470.16z" />
<glyph unicode="&#xe627;" glyph-name="pdf" d="M717.872 915.664h-629.216v-422.128h562.24v-419.376h-562.24v-93.84h935.344v625.328l-306.128 310.016zM715.648 604.192v250.672l249.072-250.672h-249.072zM180.576 318.464c0-14.624-10.080-24.464-25.984-24.464h-32.8v49.2h32.8c15.904 0 25.984-10.112 25.984-24.736zM0 446.352v-325.008h597.552v325.008h-597.552zM156.352 262.48h-34.56v-67.632h-35.072v179.632h69.632c37.072 0 59.28-25.488 59.28-56.016 0.016-30.512-22.208-55.984-59.28-55.984zM357.488 212.032c-11.856-11.872-28.752-17.168-47.408-17.168h-64.848v179.616h64.848c18.656 0 35.552-5.296 47.408-17.152 20.192-20.192 18.176-44.896 18.176-71.888s2.016-53.232-18.176-73.408zM529.888 343.2h-83.248v-44.16h70.896v-31.264h-70.896v-72.928h-35.056v179.632h118.32v-31.28zM333.024 332.112c6.576-8.096 7.584-19.44 7.584-46.672 0-27.248-1.008-40.112-7.584-48.192-6.064-7.312-14.128-11.088-26.24-11.088h-26.496v117.040h26.496c12.112 0 20.192-3.776 26.24-11.088z" />
<glyph unicode="&#xe628;" glyph-name="phone" d="M0 960v-1024h1024v1024h-1024zM794.56 30.288c-64.976-52.192-277.2 27.216-469.376 266.56-192.144 239.392-223.776 463.76-158.768 515.952 56.336 45.184 127.904 127.072 208.032 1.44 80.224-125.616 31.072-152.928-27.056-199.6-40.592-32.576 25.696-133.488 96.88-222.16 71.184-88.72 155.44-175.248 196-142.64 58.128 46.624 95.424 88.736 200.72-16.72 105.344-105.456 9.888-157.616-46.432-202.832z" />
<glyph unicode="&#xe629;" glyph-name="rejuvenated" d="M1024 364.8c0 131.168-71.664 251.616-187.040 314.288l-25.376-46.688c98.256-53.376 159.28-155.92 159.28-267.6 0-98.144-47.136-189.184-125.216-246.048l4.912 33.232-52.56 7.776-17.12-115.6 113.44-23.088 10.608 52.064-24.784 5.040c89.76 66.928 143.856 172.688 143.856 286.624zM119.088 629.68l24.784-5.040c-89.776-66.912-143.872-172.656-143.872-286.576 0-131.184 71.664-251.632 187.056-314.336l25.36 46.72c-98.24 53.36-159.28 155.904-159.28 267.616 0 98.16 47.152 189.184 125.232 246.016l-4.912-33.216 52.56-7.776 17.12 115.568-113.424 23.104-10.624-52.080zM640.912 353.936v245.952l225.328 161.2c22.832 16.352 28.416 48.48 12.448 71.584l-13.264 19.216c-15.616 22.56-49.152 28.624-71.824 12.496l-226.752-162.192h-4.848c43.184 21.92 72.912 66.672 72.912 118.336 0 73.168-59.52 132.704-132.704 132.704-73.168 0-132.688-59.536-132.688-132.704 0-51.664 29.728-96.416 72.912-118.336h-4.864l-226.832 162.224c-22.496 15.984-56.080 10.096-71.792-12.544l-13.232-19.184c-16-23.104-10.416-55.232 12.448-71.6l225.312-161.2v-246.048l-101.328-317.392c-5.92-18.512-4.080-38.096 5.184-55.168 9.216-16.896 24.656-29.008 43.632-34.208l6.464-1.712c6.064-1.712 12.528-2.592 19.168-2.592 32.064 0 61.28 21.168 71.008 51.504l91.776 287.44h5.696l91.792-287.472c9.696-30.304 38.896-51.472 70.976-51.472 6.64 0 13.072 0.88 18.88 2.496l6.944 1.84c18.8 5.152 34.24 17.28 43.456 34.208 9.232 16.96 11.088 36.528 5.184 55.136l-101.392 317.488zM410.272 820.528c0 50.704 41.248 91.952 91.936 91.952 50.704 0 91.952-41.248 91.952-91.952 0-50.736-41.248-92-91.952-92s-91.936 41.264-91.936 92zM701.328 0.8c-3.92-7.184-10.304-12.16-18.304-14.352l-7.072-1.856c-2.48-0.72-5.216-1.056-8.128-1.056-14.576 0-27.808 9.52-32.176 23.136l-100.848 315.792h-65.2l-100.816-315.76c-5.264-16.368-23.76-26.72-40.624-22.048l-6.624 1.76c-8.144 2.24-14.528 7.2-18.416 14.352-3.92 7.184-4.672 15.456-2.16 23.296l100.928 316.272 2.352 5.984v274.528l-242.368 173.376c-4.8 3.44-6.032 10.432-2.656 15.312l13.232 19.168c3.232 4.656 10.048 5.792 14.624 2.544l237.392-169.792h155.456l237.344 169.76c4.736 3.392 11.472 2.080 14.624-2.48l13.264-19.216c3.36-4.848 2.16-11.856-2.64-15.296l-242.352-173.376v-274.544l1.344-3.504c0.304-0.832 0.656-1.536 0.528-1.024l101.424-317.664c2.496-7.904 1.744-16.208-2.128-23.312z" />
<glyph unicode="&#xe62a;" glyph-name="weight-loss" d="M769.264 459.472c-48.64 192.896 97.856 368.896 99.344 370.656l-25.904 21.968c-6.528-7.696-159.36-190.848-106.384-400.928 21.36-84.72 52.88-136.224 81.6-180.8-275.376-119.568-528.064-28.768-591.056-2.096 29.040 45.056 61.232 96.864 82.912 182.896 52.976 210.080-99.856 393.232-106.384 400.928l-25.904-21.984c1.488-1.76 148.096-177.344 99.344-370.656-21.152-83.968-53.424-133.952-81.904-178.048-40.608-62.912-75.664-117.232-64.272-237.52l33.808 3.2c-8.912 93.872 12.784 141.984 43.84 192.048 36.992-16.624 156.576-64.16 315.264-64.16 93.744 0 201.088 16.96 312.816 66.464 31.808-50.928 54.288-99.040 45.232-194.352l33.808-3.2c11.408 120.288-23.664 174.608-64.272 237.52-28.464 44.112-60.736 94.096-81.888 178.064zM547.056 330.144c0-15.146-12.278-27.424-27.424-27.424s-27.424 12.278-27.424 27.424c0 15.146 12.278 27.424 27.424 27.424s27.424-12.278 27.424-27.424zM221.776 526.56l-146.928 146.912v-71.248h-74.848v-151.36h74.848v-71.088l146.928 146.784zM33.984 484.832v83.424h74.848v23.216l64.896-64.912-64.896-64.848v23.136h-74.848zM949.152 602.224v71.248l-146.944-146.912 146.944-146.784v71.088h74.848v151.36h-74.848zM990.016 484.832h-74.848v-23.136l-64.912 64.848 64.912 64.928v-23.216h74.848v-83.424z" />
<glyph unicode="&#xe62b;" glyph-name="young" d="M378.608 720.96c-60.176 0-110.672 45.568-117.472 105.968-7.392 65.392 39.312 124.736 104.128 132.272 65.936 7.664 123.76-40.256 131.104-105.152 7.424-65.456-39.312-124.8-104.16-132.304-4.576-0.528-9.12-0.784-13.6-0.784zM378.848 918.224c-2.912 0-5.824-0.176-8.784-0.512-42-4.88-72.256-43.504-67.44-86.096 4.752-42.224 42.144-73.232 84.8-68.384 42.016 4.864 72.272 43.488 67.456 86.096-4.464 39.28-37.136 68.896-76.032 68.896zM894.656-64v0c-27.584 0-51.792 14.464-66.448 39.712l-73.392 126.064c-31.84 54.672-63.68 109.36-95.488 164.080-3.168-1.504-6.848-3.248-11.12-5.28-22.88-10.864-56.56-26.848-83.264-41.328l90.592-55.040c32.064-19.456 45.696-53.968 35.6-90.080-10.32-36.944-41.856-62.72-76.704-62.72-14.096 0-27.968 4.080-41.2 12.16-8.016 4.848-185.728 112.912-214.48 143.392l-0.352-0.304c-29.328 33.952-26.64 78.096 6.544 107.312 43.392 38.208 89.616 70.976 137.664 97.6-33.12 64.336-65.264 123.664-97.664 180.544-130.656-33.696-258.080 19.312-345.616 143.232-16.976 24.048-19.568 51.6-7.12 75.616 14.064 27.152 45.248 45.376 77.6 45.376 27.296 0 51.248-12.624 67.44-35.536 59.504-84.288 138.512-98.368 230.592-43.056 3.456 2.080 12.992 7.472 22.4 12.816 8.736 4.96 17.408 9.856 20.608 11.776 60.944 36.576 122.672 55.136 183.472 55.136 102.352 0 197.232-54.528 267.12-153.552 16.976-24.032 19.568-51.584 7.104-75.6-14.064-27.136-45.232-45.36-77.584-45.36-27.28 0-51.232 12.624-67.408 35.552-41.776 59.184-92.528 84.144-152.096 73.984 15.36-27.168 38.928-69.008 66.816-118.512 86.496-153.584 217.2-385.664 269.744-475.936 14.912-25.6 15.424-54.256 1.408-78.592-15.152-26.416-44.496-43.456-74.768-43.456zM673.392 324.8l12.16-20.928c35.072-60.4 70.24-120.752 105.36-181.088l73.408-126.080c7.296-12.576 17.504-18.944 30.336-18.944v0c15.088 0 30.96 9.232 38.576 22.48 4.56 7.92 8.032 20.72-1.312 36.768-52.704 90.496-183.488 322.752-270.032 476.432-38.272 67.936-68.368 121.408-80.288 142.272l-12.72 22.32 24.448 7.888c21.632 6.976 42.992 10.512 63.504 10.512 62.736 0 116.848-31.584 160.816-93.872 10.416-14.768 23.872-17.872 33.296-17.872 16.624 0 33.648 9.6 40.496 22.816 5.232 10.112 3.824 20.976-4.144 32.304-62.752 88.896-143.328 135.872-233.008 135.872-53.12 0-107.616-16.544-162-49.2-3.344-2-12.368-7.12-21.488-12.304-9.024-5.12-18.16-10.288-21.488-12.288-43.344-26-85.52-39.2-125.328-39.2-62.736 0-116.848 31.632-160.88 94-10.432 14.752-23.888 17.856-33.328 17.856-16.64 0-33.664-9.6-40.512-22.832-5.232-10.096-3.824-20.976 4.16-32.304 62.736-88.832 143.312-135.792 232.976-135.792 26.944 0 54.656 4.352 82.336 12.944l15.968 4.944 8.336-14.48c38.592-67.040 76.56-137.28 116.128-214.704l9.44-18.512-18.464-9.552c-51.584-26.64-101.264-60.848-147.584-101.664-23.472-20.672-7.872-42.464-2.544-48.656l1.616-1.872c17.2-15.504 136.704-92.432 203.264-132.832 6.64-4.048 13.216-6.080 19.552-6.080 18.048 0 32.016 16.208 36.48 32.208 2.352 8.416 5.44 29.504-17.024 43.12l-147.728 89.76 26.464 18.432c27.76 18.928 81.872 44.608 117.68 61.6 10.704 5.072 21.744 10.336 25.12 12.16l17.952 14.368z" />
<glyph unicode="&#xe62c;" glyph-name="camera" d="M981.344 704.896c-25.84 10.688-55.568 4.784-75.344-14.992l-131.664-131.68v80.272c0 57.152-46.336 103.52-103.52 103.52h-567.296c-57.168 0-103.52-46.352-103.52-103.52v-380.976c0-57.152 46.352-103.52 103.52-103.52h567.296c57.168 0 103.52 46.352 103.52 103.52v80.272l131.664-131.68c13.248-13.216 30.912-20.256 48.912-20.256 8.912 0 17.872 1.712 26.432 5.264 25.808 10.688 42.656 35.888 42.656 63.856v386.048c0 27.968-16.848 53.168-42.656 63.872zM486.528 421.184l-141.088-108.4c-6.016-4.64-13.296-7.008-20.608-7.008-5.088 0-10.192 1.136-14.944 3.488-11.552 5.68-18.864 17.456-18.864 30.336v216.8c0 12.896 7.312 24.64 18.864 30.336 11.568 5.696 25.344 4.336 35.552-3.52l141.088-108.4c8.336-6.384 13.216-16.32 13.216-26.816s-4.88-20.416-13.216-26.816z" />
<glyph unicode="&#xe62d;" glyph-name="fitin" d="M342.368 332.944h-304.464c-20.928 0-37.904-16.976-37.904-37.92s16.976-37.904 37.904-37.904h218.128l-104.512-104.496c-14.816-14.816-14.816-38.816 0-53.6 7.392-7.408 17.104-11.12 26.8-11.12s19.392 3.712 26.8 11.12l99.344 99.344v-224.464c0-20.944 16.992-37.904 37.904-37.904s37.904 16.976 37.904 37.904v321.12c0.016 20.944-16.976 37.92-37.904 37.92zM986.096 338.064h-287.84c-20.928 0-37.904-16.976-37.904-37.904v-326.288c0-20.944 16.992-37.904 37.904-37.904 20.944 0 37.904 16.976 37.904 37.904v208.912l83.76-83.744c7.392-7.408 17.088-11.12 26.8-11.12 9.68 0 19.392 3.712 26.8 11.12 14.816 14.784 14.816 38.784 0 53.6l-109.648 109.632h222.224c20.928 0 37.904 17.008 37.904 37.904 0 20.912-16.992 37.888-37.904 37.888zM986.096 567.616c20.928 0 37.904 16.992 37.904 37.904 0 20.944-16.992 37.904-37.904 37.904h-214.208l101.632 101.632c14.816 14.8 14.816 38.8 0 53.6s-38.8 14.8-53.6 0l-96-96v219.44c0 20.928-16.976 37.904-37.904 37.904s-37.904-16.976-37.904-37.904v-316.576c0-20.928 16.992-37.904 37.904-37.904h300.080zM352.72 960.016c-20.928 0-37.904-16.976-37.904-37.904v-233.152l-109.696 109.696c-14.8 14.8-38.784 14.8-53.6 0s-14.816-38.8 0-53.6l109.344-109.344h-222.96c-20.928 0-37.904-16.992-37.904-37.904s16.976-37.904 37.904-37.904h314.816c20.928 0 37.904 16.992 37.904 37.904v324.304c0 20.928-16.976 37.904-37.904 37.904z" />
<glyph unicode="&#xe62e;" glyph-name="fitout" d="M342.368 11.808h-220.192l107.488 107.488c14.8 14.816 14.8 38.8 0 53.6-14.8 14.816-38.8 14.816-53.6 0l-100.256-100.256v219.52c0 20.944-16.992 37.904-37.904 37.904-20.928 0-37.904-16.976-37.904-37.904v-318.256c0-20.912 16.976-37.904 37.904-37.904h304.464c20.928 0 37.888 16.992 37.888 37.904s-16.96 37.904-37.888 37.904zM986.096 335.216c-20.928 0-37.904-16.976-37.904-37.888v-223.664l-99.216 99.216c-14.816 14.816-38.8 14.816-53.616 0-14.8-14.8-14.8-38.784 0-53.6l107.504-107.488h-204.624c-20.928 0-37.904-16.992-37.904-37.904s16.976-37.888 37.904-37.888h287.856c20.912 0 37.904 16.992 37.904 37.904v323.424c0 20.928-16.992 37.888-37.904 37.888zM986.096 960h-300.048c-20.928 0-37.904-16.976-37.904-37.904s16.992-37.904 37.904-37.904h204.752l-95.44-95.424c-14.8-14.8-14.8-38.784 0-53.6 7.408-7.408 17.104-11.104 26.816-11.104s19.392 3.696 26.8 11.104l99.216 99.232v-228.848c0-20.944 16.992-37.904 37.904-37.904s37.904 16.96 37.904 37.904v316.544c0 20.928-16.992 37.904-37.904 37.904zM352.72 960h-314.816c-20.928 0-37.904-16.976-37.904-37.904v-324.304c0-20.944 16.976-37.904 37.904-37.904s37.904 16.976 37.904 37.904v237.632l100.256-100.272c7.392-7.408 17.104-11.104 26.8-11.104s19.392 3.696 26.8 11.104c14.8 14.816 14.8 38.8 0 53.6l-95.424 95.44h218.48c20.928 0 37.888 16.992 37.888 37.904 0 20.928-16.96 37.904-37.888 37.904z" />
<glyph unicode="&#xe62f;" glyph-name="swipe" d="M871.232 565.536c-22.208 0-40.736-7.408-55.552-18.528 0 51.84-40.752 92.576-92.56 92.576-22.224 0-44.432-7.392-62.976-22.208-14.8 37.008-48.128 59.248-85.152 59.248-22.24 0-40.736-7.392-55.552-18.512v166.64h0.384c0 0 7.392 111.696-89.248 111.072-51.84-0.352-92.592-40.752-92.592-92.592v-329.568c-74.048 66.656-155.504 118.512-207.36 66.656-74.064-74.048 81.472-218.464 199.968-436.96 85.168-151.792 203.696-207.36 322.176-207.36 174.048 0 314.752 140.72 314.752 314.768v222.176c-3.712 51.84-44.448 92.592-96.288 92.592zM926.8 391.472v-140.704c0-144.4-125.904-277.744-277.744-277.744-140.688 0-222.192 77.76-288.832 185.152-140.736 244.416-244.4 355.488-207.376 396.224 40.72 40.736 140.72-48.128 218.496-129.616v418.448c0 29.648 25.92 55.552 55.52 55.552 29.648 0 55.584-25.904 55.584-55.552v-388.8h37.008v129.616c0 29.632 25.92 55.52 55.552 55.52 29.616 0 55.536-25.904 55.536-55.52v-92.592h37.040v55.552c0 29.664 25.92 55.552 55.552 55.552s55.552-25.888 55.552-55.552v-92.56h37.008v18.528c0 29.6 25.92 55.52 55.552 55.52 29.648 0 55.568-25.92 55.568-55.52v-81.504zM583.328 829.744h170.176l-64.832-64.832c-6.912-6.896-6.912-18.080 0-24.976 3.44-3.44 7.952-5.152 12.464-5.152 4.528 0 9.024 1.712 12.48 5.152l94.944 94.944c6.896 6.896 6.896 18.080 0 24.976l-94.96 94.976c-6.896 6.896-18.048 6.88-24.96 0.016-6.896-6.896-6.896-18.064 0-24.976l64.832-64.832h-170.144c-9.744 0-17.664-7.904-17.664-17.648s7.92-17.648 17.664-17.648zM169.072 734.784c4.512 0 9.040 1.712 12.48 5.152 6.896 6.896 6.896 18.080 0 24.976l-64.832 64.832h170.176c9.744 0 17.648 7.888 17.648 17.648s-7.904 17.648-17.648 17.648h-170.128l64.816 64.832c6.88 6.896 6.88 18.064 0 24.976-6.896 6.864-18.064 6.88-24.96-0.016l-94.976-94.976c-6.896-6.896-6.896-18.064 0-24.976l94.944-94.944c3.44-3.424 7.968-5.152 12.48-5.152z" />
<glyph unicode="&#xe630;" glyph-name="tumblr" d="M556.528 893.808v-207.232h207.184v-160h-207.184v-229.76c0-52-0.656-81.984 4.848-96.688 5.456-14.656 19.184-29.872 34.144-38.672 19.84-11.904 42.448-17.84 68-17.84 45.36 0 90.496 14.736 135.392 44.208v-141.296c-38.272-18.032-72.976-30.736-104-37.936-31.072-7.216-64.624-10.928-100.72-10.928-40.96 0-65.136 5.184-96.592 15.456-31.504 10.432-58.352 25.232-80.528 44.256-22.336 19.184-37.664 39.552-46.272 61.088-8.608 21.616-12.896 52.896-12.896 93.856v314.256h-121.744v126.944c35.2 11.408 76 27.792 101.040 49.136 25.168 21.408 45.312 47.008 60.448 76.96 15.264 29.872 25.728 68 31.424 114.192h127.456z" />
<glyph unicode="&#xe631;" glyph-name="zoomin" d="M1013.808 9.168l-201.264 195.504c62.176 77.984 99.616 176.496 99.616 283.728 0 251.472-204.592 456.064-456.080 456.064s-456.080-204.592-456.080-456.064c0-251.488 204.592-456.080 456.080-456.080 120.112 0 229.2 47.024 310.752 123.2l200.208-194.512c6.512-6.336 14.96-9.488 23.376-9.488 8.752 0 17.52 3.408 24.096 10.176 12.912 13.296 12.608 34.576-0.704 47.472zM456.080 99.456c-214.464 0-388.944 174.48-388.944 388.96 0 214.448 174.48 388.928 388.944 388.928 214.448 0 388.944-174.48 388.944-388.928-0.016-214.48-174.496-388.96-388.944-388.96zM670.416 521.968h-180.8v180.8c0 18.528-15.024 33.568-33.568 33.568s-33.568-15.040-33.568-33.568v-180.8h-180.8c-18.528 0-33.568-15.024-33.568-33.568s15.040-33.568 33.568-33.568h180.8v-180.8c0-18.528 15.024-33.584 33.568-33.584s33.568 15.040 33.568 33.584v180.8h180.8c18.528 0 33.584 15.024 33.584 33.568s-15.040 33.568-33.584 33.568z" />
<glyph unicode="&#xe632;" glyph-name="zoomout" d="M1013.808 9.168l-201.264 195.504c62.176 77.984 99.616 176.496 99.616 283.728 0 251.472-204.592 456.064-456.064 456.064-251.504 0-456.096-204.592-456.096-456.064 0-251.488 204.592-456.080 456.096-456.080 120.096 0 229.184 47.024 310.736 123.2l200.208-194.512c6.512-6.336 14.96-9.488 23.376-9.488 8.752 0 17.52 3.408 24.096 10.192 12.912 13.28 12.608 34.56-0.704 47.456zM456.096 99.456c-214.48 0-388.96 174.48-388.96 388.96 0 214.448 174.48 388.928 388.96 388.928 214.432 0 388.928-174.48 388.928-388.928-0.016-214.48-174.496-388.96-388.928-388.96zM670.416 521.968h-428.72c-18.528 0-33.568-15.024-33.568-33.568s15.040-33.584 33.568-33.584h428.72c18.528 0 33.584 15.040 33.584 33.584s-15.040 33.568-33.584 33.568z" />
<glyph unicode="&#xe633;" glyph-name="fax" d="M340.176 448l-57.28-265.904h458.192l-57.264 265.904zM0 960v-1024h1024v1024h-1024zM156.352 620.112c11.632 4.048 140.864 52.896 163.36 52.896h36.816v122.736h310.928v-122.736h36.816c22.512 0 151.744-48.832 163.36-52.896 11.632-4.048 15.456-28.928-7.888-28.928h-695.472c-23.36 0-19.52 24.88-7.92 28.928zM912.928 353.904c0-22.496-22.496-49.088-45.008-49.088h-81.104l36.112-204.56h-621.856l36.096 204.56h-81.088c-22.496 0-45.008 26.592-45.008 49.088v143.184c0 22.496 22.496 49.088 45.008 49.088h711.84c22.496 0 45.008-26.592 45.008-49.088v-143.184z" />
<glyph unicode="&#xe634;" glyph-name="mobile" d="M324.016 780.576h-14.448v-607.312h404.848v607.312h-14.448zM540.928 100.976c0-15.976-12.952-28.928-28.928-28.928s-28.928 12.952-28.928 28.928c0 15.976 12.952 28.928 28.928 28.928s28.928-12.952 28.928-28.928zM0 960v-1024h1024v1024h-1024zM757.808 72.048c0-23.968-19.424-43.36-43.392-43.36h-404.848c-23.968 0-43.376 19.392-43.376 43.36v751.888c0 23.968 19.424 43.376 43.376 43.376h404.848c23.968 0 43.392-19.424 43.392-43.376v-751.888z" />
<glyph unicode="&#xe635;" glyph-name="panorama" d="M0 826.688v-757.376c0 0 504.4 217.664 1024 0v757.376c0 0-553.024-312.928-1024 0zM967.504 194.992l-174.096 227.12-112-68.304-232.528 166.992-93.728-101.088-152.176 120.848-160.704 186.8c0 0 359.136-287.856 925.232-6.608v-525.76zM917.792 539.776c0-40.418-32.766-73.184-73.184-73.184s-73.184 32.766-73.184 73.184c0 40.418 32.766 73.184 73.184 73.184s73.184-32.766 73.184-73.184z" />
<glyph unicode="&#xe636;" glyph-name="reservation" d="M766.352 928.912v31.088h-36.8v-31.088h-440.016v31.088h-36.816v-31.088h-237.168v-992.912h992.912v992.912h-242.112zM491.136 657.664v-134.944h-201.6v134.944h201.6zM491.136 485.936v-158.288h-201.6v158.288h201.6zM527.952 485.936h201.616v-158.288h-201.616v158.288zM527.952 522.736v134.944h201.616v-134.944h-201.616zM252.72 657.664v-134.944h-200.368v134.944h200.368zM252.72 485.936v-158.288h-200.368v158.288h200.368zM252.72 290.848v-158.272h-200.368v158.272h200.368zM289.536 290.848h201.616v-158.272h-201.616v158.272zM491.136 95.76v-122.96h-201.6v122.96h201.6zM527.952 95.76h201.616v-122.96h-201.616v122.96zM527.952 132.576v158.272h201.616v-158.272h-201.616zM766.352 290.848h205.296v-158.272h-205.296v158.272zM766.352 327.648v158.288h205.296v-158.288h-205.296zM766.352 522.736v134.944h205.296v-134.944h-205.296zM252.72 892.096v-46.864h36.816v46.864h440.032v-46.864h36.8v46.864h205.296v-197.616h-919.312v197.616h200.368zM52.352 95.76h200.368v-122.96h-200.368v122.96zM766.352-27.184v122.96h205.296v-122.96h-205.296zM540.56 473.088h173.888v-131.856h-173.888v131.856zM782 473.088h173.888v-131.856h-173.888v131.856zM65.696 278.016h173.888v-131.872h-173.888v131.872zM303.344 278.016h173.888v-131.872h-173.888v131.872zM542.128 278.016h173.872v-131.872h-173.872v131.872z" />
</font>
</defs>
</svg>
